<svg width="67" height="25" viewBox="0 0 67 25" fill="none" xmlns="http://www.w3.org/2000/svg">
<g clip-path="url(#clip0_1002_8429)">
<path d="M14.8539 1.57389C15.5594 2.24135 16.0022 2.94268 16.0657 3.92578C16.0997 5.24569 15.938 6.3944 14.9992 7.39583C14.4119 7.98913 13.8576 8.43716 12.994 8.47656C12.6034 8.4375 12.6034 8.4375 12.4198 8.30403C12.2909 8.125 12.2909 8.125 12.3364 7.72135C12.4814 7.16256 12.732 6.65433 12.9846 6.13728C13.3511 5.33922 13.3637 4.29816 13.1535 3.44685C12.9192 2.88092 12.6138 2.54792 12.0532 2.28393C11.0955 1.95782 10.0594 2.19954 9.16586 2.60416C6.62881 3.91914 4.96202 6.51502 4.0979 9.16687C3.96098 9.61387 3.84987 10.0645 3.74919 10.5208C3.72569 10.6269 3.70219 10.733 3.67798 10.8423C3.25382 13.1181 3.41871 15.8785 4.71924 17.8516C5.39356 18.7487 6.18596 19.338 7.29086 19.5833C9.1998 19.6998 10.6515 19.2768 12.1379 18.0428C13.8359 16.5221 14.829 14.4973 15.6372 12.4023C16.3494 10.5877 17.6464 8.82886 19.4784 8.02083C20.4046 7.68575 21.2906 7.73961 22.1867 8.125C22.6314 8.47305 22.864 8.88358 23.1242 9.375C23.181 9.30463 23.2378 9.23427 23.2963 9.16178C23.8739 8.4786 24.361 7.9882 25.2751 7.88574C25.727 7.87248 26.0656 7.88101 26.4575 8.125C26.878 8.96596 26.3954 10.0754 26.1461 10.9138C26.0228 11.3294 25.9043 11.7464 25.7861 12.1635C25.7511 12.2871 25.7511 12.2871 25.7153 12.4133C25.2965 13.906 24.8847 15.4944 24.8755 17.0508C24.874 17.165 24.8725 17.2793 24.871 17.397C24.8943 17.6995 24.9462 17.8696 25.1034 18.125C25.6874 18.1045 26.0468 18.0302 26.4734 17.6221C28.4161 15.3385 29.534 11.7989 29.5374 8.83992C29.5936 8.46843 29.7077 8.35386 29.9992 8.125C30.6029 7.85059 31.1688 7.82782 31.7961 8.02083C32.1848 8.30357 32.3395 8.61323 32.4992 9.0625C32.5476 9.39073 32.544 9.70805 32.5317 10.0391C32.5301 10.1256 32.5285 10.2121 32.5269 10.3012C32.5128 10.8991 32.4728 11.4901 32.395 12.0833C32.438 12.0127 32.481 11.9421 32.5252 11.8693C32.9592 11.1699 33.4279 10.5254 33.9575 9.89583C34.024 9.81405 34.0905 9.73228 34.1589 9.64803C34.9599 8.6956 35.993 7.91705 37.2583 7.76692C37.9405 7.85703 38.423 8.10786 38.8534 8.64583C39.1126 9.17644 39.2263 9.69548 39.2245 10.2865C39.2244 10.3644 39.2244 10.4423 39.2244 10.5226C39.1884 11.7932 38.8301 13.0395 38.5409 14.2708C38.1456 15.882 38.1456 15.882 38.3325 17.5C38.6227 17.5833 38.7935 17.6269 39.08 17.5179C40.6377 16.4813 41.5136 14.4356 41.9272 12.6571C42.0487 12.0364 42.1168 11.4062 42.1789 10.7772C42.2872 9.72467 42.4836 8.82447 43.3325 8.125C43.8987 7.8221 44.4709 7.74925 45.1034 7.8125C45.3847 7.93617 45.3847 7.93617 45.6242 8.125C45.6854 8.37932 45.6854 8.37932 45.68 8.68532C45.6793 8.80021 45.6786 8.91509 45.6779 9.03345C45.6745 9.15811 45.6712 9.28277 45.6677 9.41121C45.6665 9.54042 45.6653 9.66963 45.664 9.80276C45.6604 10.1479 45.6547 10.4928 45.6478 10.8378C45.5488 14.0502 45.5488 14.0502 46.145 17.1875C46.1807 17.3261 46.2158 17.4649 46.2492 17.6042C47.5307 17.2532 48.2003 15.8073 48.8212 14.7244C49.1688 14.0992 49.483 13.4579 49.7909 12.8125C49.8252 12.7437 49.8596 12.675 49.895 12.6042C49.8241 12.5848 49.7532 12.5655 49.6802 12.5456C48.7993 12.1145 48.3836 11.3033 48.0461 10.4207C47.709 9.3112 47.8821 8.13101 48.3325 7.08333C48.7489 6.36702 49.2875 5.84887 50.0777 5.57698C50.632 5.44395 51.1511 5.45472 51.6919 5.63151C52.1733 5.97064 52.5047 6.3427 52.7466 6.88151C53.0133 8.56203 52.5967 10.2078 51.9784 11.7708C52.9949 11.8528 53.6686 11.5187 54.4393 10.8659C54.7656 10.562 55.0442 10.2407 55.3182 9.88932C56.1092 8.87699 57.2269 7.99512 58.5409 7.8125C59.2817 7.76227 60.0533 7.81049 60.6368 8.31665C60.9337 8.64811 61.1654 8.97098 61.3534 9.375C61.4458 9.26764 61.4458 9.26764 61.5401 9.15812C61.6224 9.06426 61.7048 8.9704 61.7896 8.87369C61.8705 8.78064 61.9515 8.68759 62.0349 8.59171C62.5541 8.06755 63.0271 7.90264 63.7492 7.89713C63.8373 7.89565 63.9254 7.89418 64.0161 7.89266C64.29 7.91855 64.4555 7.97793 64.6867 8.125C65.0822 8.91606 64.6551 9.95201 64.4133 10.7292C64.1144 11.7303 63.839 12.7314 63.606 13.75C63.5812 13.8573 63.5564 13.9646 63.5308 14.0751C63.3066 15.0698 63.0938 16.0603 63.0982 17.0833C63.0973 17.2767 63.0973 17.2767 63.0965 17.474C63.1223 17.7893 63.1661 17.965 63.3325 18.2292C63.8931 18.1852 64.1737 18.093 64.5825 17.7083C64.805 17.3874 64.805 17.3874 64.9992 17.0247C65.0349 16.961 65.0707 16.8973 65.1075 16.8316C65.3788 16.3403 65.6068 15.8365 65.8114 15.3137C65.9367 15.1042 65.9367 15.1042 66.1401 15.002C66.3534 15 66.3534 15 66.5328 15.1103C66.8268 15.5572 66.7167 16.1561 66.6659 16.6667C66.391 17.8578 65.5639 18.8465 64.5667 19.5146C63.6665 20.0393 62.8119 20.2351 61.77 20.1042C60.9758 19.8849 60.5204 19.3131 60.1164 18.6263C59.9992 18.3333 59.9992 18.3333 59.9992 17.9167C59.6897 18.2168 59.404 18.5238 59.1268 18.8542C58.4882 19.5865 57.7821 20.0472 56.7997 20.1412C55.9383 20.1835 55.1801 20.1346 54.4784 19.5833C53.5349 18.7056 53.2723 17.4238 53.2157 16.1812C53.189 14.9892 53.3597 13.8354 53.7492 12.7083C53.6822 12.7384 53.6152 12.7685 53.5461 12.7995C52.762 13.1216 52.0913 13.1732 51.2492 13.125C51.2231 13.2124 51.1971 13.2998 51.1703 13.3899C50.3043 15.7999 48.1647 18.6864 45.9172 19.9544C45.4092 20.1813 44.9404 20.2008 44.4133 20C43.3073 19.0687 42.9659 17.6334 42.675 16.276C42.6475 16.1525 42.6201 16.029 42.5918 15.9017C42.5252 15.6013 42.4596 15.3008 42.395 15C42.3684 15.0597 42.3417 15.1194 42.3143 15.181C41.7812 16.3652 41.2578 17.44 40.4159 18.4375C40.3705 18.4995 40.3251 18.5616 40.2783 18.6255C39.7605 19.3243 38.877 19.924 38.02 20.1042C37.2034 20.1971 36.5223 20.0812 35.8651 19.5768C35.0746 18.5727 34.8912 17.5033 34.9992 16.25C35.1308 15.2506 35.3299 14.2594 35.5363 13.2731C35.5554 13.1811 35.5745 13.0892 35.5942 12.9944C35.6302 12.8232 35.6672 12.6522 35.7055 12.4815C35.831 11.8918 35.8524 11.3311 35.8325 10.7292C35.2786 10.7627 34.9441 11.0687 34.5825 11.4583C32.7876 13.7057 31.4103 16.5509 30.8118 19.3652C30.7016 19.6532 30.5455 19.8022 30.3117 20C29.7268 20.1949 29.1585 20.1992 28.5995 19.9349C27.9988 19.3782 27.9291 18.693 27.8117 17.9167C27.7537 17.9834 27.6957 18.0501 27.6359 18.1189C25.9788 19.9972 25.9788 19.9972 24.6379 20.1436C23.9142 20.1676 23.2896 20.1502 22.7075 19.6875C22.2925 19.2952 21.9832 18.8663 21.77 18.3333C21.77 18.1958 21.77 18.0583 21.77 17.9167C21.5688 18.1098 21.3766 18.3049 21.2 18.5209C20.5055 19.3665 19.6865 20.0317 18.5685 20.1428C17.7016 20.1694 16.9604 20.1425 16.2492 19.5833C15.48 18.8142 15.1657 17.8205 14.9992 16.7708C14.9176 16.907 14.9176 16.907 14.8344 17.0459C13.3922 19.4003 11.4178 21.1258 8.71542 21.8343C6.71649 22.1261 4.74202 21.7806 3.05705 20.6482C1.15371 19.2185 0.326005 17.0802 -0.000810332 14.7917C-0.0962289 12.913 -0.135013 10.9805 0.415856 9.16666C0.448511 9.05868 0.448511 9.05868 0.481825 8.94851C0.995364 7.32096 1.82243 5.78766 2.91586 4.47916C3.04577 4.32367 3.04577 4.32367 3.17831 4.16503C5.79203 1.13629 11.2627 -1.33357 14.8539 1.57389ZM50.52 7.08333C49.9795 7.65984 49.8438 8.3374 49.8613 9.10685C49.9443 9.76641 50.088 10.6023 50.6242 11.0417C50.6918 10.777 50.759 10.5122 50.826 10.2474C50.845 10.1731 50.864 10.0989 50.8836 10.0224C51.0399 9.4029 51.16 8.80592 51.1646 8.16406C51.166 8.06818 51.1675 7.97231 51.169 7.87353C51.1439 7.59116 51.0914 7.42365 50.9367 7.1875C50.7231 7.10361 50.7231 7.10361 50.52 7.08333ZM19.9036 10.7438C18.6428 12.4753 18.1107 14.656 18.2284 16.7708C18.3138 17.2378 18.4515 17.5851 18.7297 17.9687C19.0439 18.1842 19.1965 18.2437 19.5825 18.2292C20.7582 17.7357 21.2689 16.524 21.7265 15.4126C22.3373 13.7773 22.7966 11.9322 22.2957 10.2181C22.1621 9.95083 22.0245 9.84064 21.77 9.6875C20.9279 9.55934 20.4105 10.1506 19.9036 10.7438ZM58.1258 10.7568C56.8755 12.453 56.3184 14.6932 56.4575 16.7708C56.5441 17.2378 56.6805 17.5849 56.9588 17.9687C57.2615 18.1763 57.4428 18.2292 57.8117 18.2292C58.7565 17.8793 59.2505 16.9634 59.6657 16.0912C60.4672 14.3104 61.0874 12.143 60.5249 10.2181C60.3913 9.95083 60.2536 9.84064 59.9992 9.6875C59.1482 9.55799 58.6372 10.1596 58.1258 10.7568ZM32.1867 12.1875C32.2909 12.3958 32.2909 12.3958 32.2909 12.3958L32.1867 12.1875Z" fill="#A9A9A9"/>
</g>
<defs>
<clipPath id="clip0_1002_8429">
<rect width="66.6667" height="25" fill="white"/>
</clipPath>
</defs>
</svg>
