<svg width="60" height="60" viewBox="0 0 60 60" fill="none" xmlns="http://www.w3.org/2000/svg">
<rect width="60" height="60" rx="10" fill="url(#paint0_linear_1002_8312)"/>
<path d="M36.007 33.4187C35.8937 33.4192 35.7838 33.3795 35.6971 33.3066L32.0905 30.3857C32.0338 30.3387 31.9881 30.2798 31.9568 30.2131C31.9254 30.1464 31.9092 30.0737 31.9092 30V21.9231C31.9092 21.7919 31.9613 21.6661 32.054 21.5734C32.1468 21.4807 32.2725 21.4286 32.4037 21.4286C32.5348 21.4286 32.6606 21.4807 32.7534 21.5734C32.8461 21.6661 32.8982 21.7919 32.8982 21.9231V29.7659L36.3202 32.5384C36.4016 32.6036 36.4603 32.6927 36.488 32.7932C36.5157 32.8937 36.5109 33.0004 36.4744 33.098C36.4378 33.1957 36.3713 33.2792 36.2844 33.3368C36.1975 33.3944 36.0946 33.423 35.9905 33.4187H36.007Z" fill="black"/>
<path d="M27.4386 35.4H21.9232C21.7921 35.4 21.6663 35.3479 21.5735 35.2552C21.4808 35.1624 21.4287 35.0366 21.4287 34.9055C21.4287 34.7743 21.4808 34.6486 21.5735 34.5558C21.6663 34.4631 21.7921 34.411 21.9232 34.411H27.4386C27.5698 34.411 27.6955 34.4631 27.7883 34.5558C27.881 34.6486 27.9331 34.7743 27.9331 34.9055C27.9331 35.0366 27.881 35.1624 27.7883 35.2552C27.6955 35.3479 27.5698 35.4 27.4386 35.4Z" fill="black"/>
<path d="M25.1995 30.0923H15.9193C15.7882 30.0923 15.6624 30.0402 15.5696 29.9475C15.4769 29.8547 15.4248 29.729 15.4248 29.5978C15.4248 29.4667 15.4769 29.3409 15.5696 29.2481C15.6624 29.1554 15.7882 29.1033 15.9193 29.1033H25.1995C25.3307 29.1033 25.4565 29.1554 25.5492 29.2481C25.6419 29.3409 25.694 29.4667 25.694 29.5978C25.694 29.729 25.6419 29.8547 25.5492 29.9475C25.4565 30.0402 25.3307 30.0923 25.1995 30.0923Z" fill="black"/>
<path d="M21.6691 24.7253H18.3724C18.2413 24.7253 18.1155 24.6732 18.0228 24.5804C17.93 24.4877 17.8779 24.3619 17.8779 24.2308C17.8779 24.0996 17.93 23.9738 18.0228 23.8811C18.1155 23.7884 18.2413 23.7363 18.3724 23.7363H21.6691C21.8003 23.7363 21.9261 23.7884 22.0188 23.8811C22.1115 23.9738 22.1636 24.0996 22.1636 24.2308C22.1636 24.3619 22.1115 24.4877 22.0188 24.5804C21.9261 24.6732 21.8003 24.7253 21.6691 24.7253Z" fill="black"/>
<path d="M32.4037 39.3956C32.2725 39.3956 32.1468 39.3435 32.054 39.2508C31.9613 39.158 31.9092 39.0322 31.9092 38.9011V38.8022C31.9092 38.671 31.9613 38.5453 32.054 38.4525C32.1468 38.3598 32.2725 38.3077 32.4037 38.3077C32.5348 38.3077 32.6606 38.3598 32.7534 38.4525C32.8461 38.5453 32.8982 38.671 32.8982 38.8022V38.9011C32.8982 39.0322 32.8461 39.158 32.7534 39.2508C32.6606 39.3435 32.5348 39.3956 32.4037 39.3956Z" fill="black"/>
<path d="M41.6139 30.4945H41.515C41.3839 30.4945 41.2581 30.4424 41.1653 30.3497C41.0726 30.2569 41.0205 30.1311 41.0205 30C41.0205 29.8688 41.0726 29.7431 41.1653 29.6503C41.2581 29.5576 41.3839 29.5055 41.515 29.5055H41.6139C41.7451 29.5055 41.8708 29.5576 41.9636 29.6503C42.0563 29.7431 42.1084 29.8688 42.1084 30C42.1084 30.1311 42.0563 30.2569 41.9636 30.3497C41.8708 30.4424 41.7451 30.4945 41.6139 30.4945Z" fill="black"/>
<path d="M20.8714 32.0967C20.7523 32.097 20.6372 32.054 20.5475 31.9758C20.4577 31.8976 20.3994 31.7894 20.3834 31.6714C20.3074 31.1176 20.2711 30.559 20.2747 30C20.2747 29.8688 20.3268 29.7431 20.4195 29.6503C20.5122 29.5576 20.638 29.5055 20.7692 29.5055C20.9003 29.5055 21.0261 29.5576 21.1188 29.6503C21.2116 29.7431 21.2637 29.8688 21.2637 30C21.2637 30.5128 21.299 31.025 21.3692 31.533C21.3779 31.5982 21.3735 31.6646 21.3563 31.7281C21.3391 31.7917 21.3093 31.8512 21.2688 31.9031C21.2282 31.955 21.1777 31.9982 21.1202 32.0304C21.0628 32.0625 20.9994 32.0828 20.934 32.0901L20.8714 32.0967Z" fill="black"/>
<path d="M32.4037 42.1352C30.7728 42.1409 29.1576 41.8151 27.6564 41.1776C26.1552 40.54 24.7992 39.604 23.6708 38.4264C23.5955 38.3296 23.5589 38.2084 23.568 38.0862C23.577 37.964 23.6311 37.8495 23.7198 37.7649C23.8085 37.6803 23.9254 37.6317 24.0479 37.6284C24.1705 37.6252 24.2898 37.6675 24.3829 37.7473C25.4194 38.8282 26.665 39.6869 28.0439 40.2712C29.4228 40.8555 30.9062 41.1532 32.4037 41.1462C34.3904 41.1456 36.3408 40.6141 38.053 39.6066C39.7652 38.5992 41.1771 37.1524 42.1424 35.416C43.1078 33.6797 43.5915 31.7169 43.5435 29.7309C43.4955 27.7448 42.9176 25.8077 41.8696 24.12C40.8216 22.4323 39.3415 21.0553 37.5826 20.1317C35.8237 19.2081 33.85 18.7713 31.8656 18.8667C29.8813 18.962 27.9585 19.586 26.2963 20.674C24.634 21.762 23.2928 23.2745 22.4114 25.055C22.3529 25.1726 22.25 25.2621 22.1254 25.3038C22.0008 25.3455 21.8648 25.3361 21.7472 25.2775C21.6296 25.2189 21.54 25.116 21.4983 24.9914C21.4566 24.8668 21.466 24.7308 21.5246 24.6132C22.4843 22.6739 23.9448 21.0264 25.7551 19.8412C27.5654 18.656 29.6595 17.9762 31.8208 17.8723C33.982 17.7683 36.1318 18.2439 38.0474 19.2499C39.9631 20.2559 41.5751 21.7556 42.7164 23.5939C43.8577 25.4321 44.487 27.542 44.5389 29.7051C44.5909 31.8683 44.0637 34.006 43.012 35.8969C41.9603 37.7878 40.4222 39.3632 38.557 40.4601C36.6919 41.5569 34.5675 42.1352 32.4037 42.1352Z" fill="black"/>
<path d="M19.1338 35.4H18.2338C18.1026 35.4 17.9768 35.3479 17.8841 35.2552C17.7914 35.1624 17.7393 35.0366 17.7393 34.9055C17.7393 34.7743 17.7914 34.6486 17.8841 34.5558C17.9768 34.4631 18.1026 34.411 18.2338 34.411H19.1338C19.2649 34.411 19.3907 34.4631 19.4834 34.5558C19.5762 34.6486 19.6283 34.7743 19.6283 34.9055C19.6283 35.0366 19.5762 35.1624 19.4834 35.2552C19.3907 35.3479 19.2649 35.4 19.1338 35.4Z" fill="black"/>
<path d="M21.3231 26.7626C21.2398 26.7617 21.1581 26.7398 21.0855 26.6991C21.0128 26.6584 20.9516 26.6001 20.9073 26.5296C20.863 26.4591 20.8371 26.3786 20.832 26.2954C20.8269 26.2123 20.8427 26.1293 20.878 26.0538L21.5637 24.6198C21.5916 24.5611 21.6308 24.5085 21.6791 24.465C21.7273 24.4215 21.7837 24.3879 21.8449 24.3662C21.9061 24.3444 21.971 24.335 22.0359 24.3383C22.1008 24.3417 22.1644 24.3578 22.2231 24.3857C22.2817 24.4136 22.3343 24.4528 22.3778 24.5011C22.4213 24.5493 22.4549 24.6057 22.4766 24.6669C22.4984 24.7281 22.5078 24.793 22.5045 24.8579C22.5011 24.9228 22.485 24.9864 22.4571 25.045L21.7714 26.4824C21.7305 26.5665 21.6668 26.6374 21.5875 26.687C21.5082 26.7365 21.4166 26.7627 21.3231 26.7626Z" fill="black"/>
<defs>
<linearGradient id="paint0_linear_1002_8312" x1="30" y1="0" x2="30" y2="60" gradientUnits="userSpaceOnUse">
<stop stop-color="#9674E6" stop-opacity="0"/>
<stop offset="0.48" stop-color="#9674E6" stop-opacity="0.25"/>
<stop offset="1" stop-color="#9674E6"/>
</linearGradient>
</defs>
</svg>
