<svg width="480" height="512" viewBox="0 0 480 512" fill="none" xmlns="http://www.w3.org/2000/svg">
<path d="M366.56 233.376C363.968 227.648 358.272 224 352 224H288V16C288 7.168 280.832 0 272 0H208C199.168 0 192 7.168 192 16V224H128C121.728 224 116.032 227.68 113.44 233.376C110.816 239.104 111.84 245.792 115.968 250.528L227.968 378.528C231.008 382.016 235.392 384 240 384C244.608 384 248.992 381.984 252.032 378.528L364.032 250.528C368.192 245.824 369.152 239.104 366.56 233.376Z" fill="#1E1E1E"/>
<path d="M416 352V448H64V352H0V480C0 497.696 14.336 512 32 512H448C465.696 512 480 497.696 480 480V352H416Z" fill="#1E1E1E"/>
</svg>
