<svg width="76" height="25" viewBox="0 0 76 25" fill="none" xmlns="http://www.w3.org/2000/svg">
<g clip-path="url(#clip0_1002_8370)">
<path d="M30.1729 4.70062V17.2934L31.7933 17.3057V11.3062H35.7023V9.72288H31.7933V6.28398H36.8774V4.70062H30.1729ZM39.7968 7.26124C40.3782 7.26124 40.8606 6.79116 40.8606 6.19739C40.8606 5.60361 40.3906 5.13357 39.7968 5.13357C39.2154 5.13357 38.733 5.60361 38.733 6.19739C38.733 6.79116 39.203 7.26124 39.7968 7.26124ZM38.968 8.8446V17.3057H40.5885V8.8446H38.968ZM46.6004 8.59718C44.4479 8.59718 42.9512 10.4156 42.9512 12.5804C42.9512 14.7451 44.4479 16.5635 46.6004 16.5635C47.5901 16.5635 48.3938 16.1924 48.9877 15.5616V16.6873C49 18.085 47.8869 19.2479 46.4766 19.2602C46.4643 19.2602 46.4643 19.2602 46.452 19.2602C45.9324 19.2602 45.4254 19.0623 45.0168 18.7778L44.2004 20.188C46.1303 21.4374 48.7033 20.8807 49.9401 18.951C50.3733 18.2706 50.6082 17.4913 50.6082 16.6873V8.85698H48.9877V9.61157C48.3938 8.98066 47.5901 8.59718 46.6004 8.59718ZM44.5717 12.5804C44.5717 11.232 45.5983 10.1806 46.786 10.1806C47.9733 10.1806 48.9877 11.2444 48.9877 12.5804C48.9877 13.9287 47.961 14.9678 46.786 14.9678C45.5983 14.9678 44.5717 13.9164 44.5717 12.5804ZM56.4471 10.1806C55.482 10.193 54.7029 10.9846 54.7151 11.9495V17.2934H53.0947V8.83222H54.7151V9.61157C55.2098 8.95595 55.977 8.58484 56.8057 8.59718C57.9438 8.59718 58.8221 9.15386 59.3168 10.0198C59.8856 9.14148 60.8508 8.60956 61.8897 8.59718C63.7328 8.59718 64.8832 10.0816 64.8832 11.9248V17.2934H63.2754V11.9495C63.2754 10.9846 62.5082 10.193 61.5434 10.1806C60.5787 10.193 59.7992 10.9846 59.8115 11.9495V17.2934H58.1787V11.9495C58.1787 10.9846 57.4119 10.193 56.4471 10.1806ZM73.5176 9.7971C72.7754 9.01779 71.7365 8.58484 70.6602 8.59718C68.2479 8.59718 66.541 10.6382 66.541 13.0628C66.541 15.4997 68.2479 17.5284 70.6602 17.5284C71.7365 17.5284 72.7631 17.0955 73.5176 16.3285V17.2934H75.1381V8.83222H73.5176V9.7971ZM68.1615 13.0628C68.1615 11.4547 69.3983 10.1682 70.8459 10.1682C72.2807 10.1806 73.5176 11.4547 73.5176 13.0628C73.5176 14.6709 72.2807 15.945 70.8332 15.945C69.4106 15.9574 68.1615 14.6833 68.1615 13.0628Z" fill="#A9A9A9"/>
<path d="M9.24316 12.5063C9.24316 10.2054 11.1111 8.33752 13.4119 8.33752C15.7128 8.33752 17.5806 10.2054 17.5806 12.5063C17.5806 14.8071 15.7128 16.675 13.4119 16.675C11.1111 16.675 9.24316 14.8071 9.24316 12.5063Z" fill="#A9A9A9"/>
<path d="M0.917969 20.8313C0.917969 18.5305 2.78585 16.6626 5.0867 16.6626H9.25543V20.8313C9.25543 23.1322 7.38752 25.0001 5.0867 25.0001C2.78585 25.0001 0.917969 23.1322 0.917969 20.8313Z" fill="#A9A9A9"/>
<path d="M9.24316 0.0123709V8.33746H13.4119C15.7128 8.33746 17.5806 6.46955 17.5806 4.16873C17.5806 1.86789 15.7128 0 13.4119 0H9.24316V0.0123709Z" fill="#A9A9A9"/>
<path d="M0.917969 4.18115C0.917969 6.48197 2.78585 8.34984 5.0867 8.34984H9.25543V0.0247803H5.0867C2.78585 0.0124102 0.917969 1.8803 0.917969 4.18115Z" fill="#A9A9A9"/>
<path d="M0.917969 12.5062C0.917969 14.807 2.78585 16.6749 5.0867 16.6749H9.25543V8.34985H5.0867C2.78585 8.33748 0.917969 10.2053 0.917969 12.5062Z" fill="#A9A9A9"/>
</g>
<defs>
<clipPath id="clip0_1002_8370">
<rect width="74.5902" height="25" fill="white" transform="translate(0.917969)"/>
</clipPath>
</defs>
</svg>
