<svg width="92" height="25" viewBox="0 0 92 25" fill="none" xmlns="http://www.w3.org/2000/svg">
<g clip-path="url(#clip0_1002_8431)">
<path d="M0.000278285 0C5.49337 0 10.9865 0 16.646 0C16.646 2.71545 16.646 5.4309 16.646 8.22864C12.5728 8.25974 12.5728 8.25974 8.41736 8.29146C9.01137 8.88401 9.60537 9.47655 10.2174 10.0871C10.5924 10.4615 10.9674 10.8359 11.3424 11.2103C11.9382 11.8054 12.5341 12.4004 13.1304 12.995C13.5645 13.4279 13.9985 13.8611 14.4322 14.2945C14.662 14.5241 14.8919 14.7537 15.1221 14.9829C15.3385 15.1985 15.5546 15.4143 15.7705 15.6304C15.85 15.7098 15.9296 15.7892 16.0093 15.8684C16.1177 15.9762 16.2257 16.0843 16.3336 16.1926C16.3656 16.2243 16.3977 16.2559 16.4306 16.2885C16.646 16.5058 16.646 16.5058 16.646 16.6457C13.8684 16.6457 11.0907 16.6457 8.22892 16.6457C8.22892 19.4026 8.22892 22.1595 8.22892 25C8.02065 24.8959 7.94215 24.8539 7.79816 24.6934C7.76479 24.6568 7.73142 24.6202 7.69704 24.5824C7.66131 24.5427 7.62557 24.5029 7.58876 24.4619C7.25844 24.1012 6.92126 23.7493 6.57441 23.4044C6.50807 23.3384 6.50807 23.3384 6.4404 23.271C6.30518 23.1366 6.16979 23.0024 6.03436 22.8682C5.853 22.6886 5.67187 22.5087 5.49087 22.3287C5.45055 22.2889 5.41024 22.2491 5.3687 22.2081C5.17458 22.015 4.98789 21.819 4.8091 21.6116C4.57305 21.3383 4.32027 21.0845 4.06356 20.8307C4.01504 20.7824 3.96651 20.7341 3.91651 20.6844C3.76284 20.5315 3.60898 20.3788 3.45505 20.2261C3.25203 20.0248 3.04922 19.8232 2.84654 19.6215C2.80073 19.5763 2.75491 19.531 2.70771 19.4843C2.50391 19.2815 2.31116 19.08 2.13206 18.855C1.96023 18.6523 1.7767 18.5146 1.55737 18.3692C0.864651 17.9032 0.167505 17.3277 -0.0582946 16.4917C-0.277849 15.2743 -0.188688 13.9974 -0.135451 12.768C-0.110045 12.1707 -0.100196 11.5731 -0.0892635 10.9754C-0.0717281 10.0382 -0.034164 9.10292 0.000278285 8.16583C3.94909 8.13474 3.94908 8.13474 7.97767 8.10302C7.4018 7.52861 6.82593 6.95419 6.23261 6.36238C5.86902 5.99943 5.50545 5.63647 5.14195 5.27344C4.56435 4.69658 3.98668 4.11979 3.40859 3.54341C2.98764 3.12372 2.56692 2.70381 2.14646 2.28363C1.92369 2.06102 1.7008 1.83852 1.47766 1.61629C1.26786 1.40734 1.05836 1.19811 0.849084 0.988643C0.77201 0.911604 0.694828 0.834674 0.617532 0.757857C0.512441 0.653387 0.407739 0.548541 0.303131 0.443588C0.272091 0.412914 0.241052 0.382241 0.209071 0.350637C0.00027827 0.139965 0.000278285 0.139965 0.000278285 0Z" fill="#A9A9A9"/>
<path d="M66.6447 9.33156C67.0623 9.62902 67.3275 9.92477 67.5884 10.3643C67.6155 10.3336 67.6426 10.3029 67.6705 10.2713C68.2761 9.59622 68.749 9.13767 69.6613 8.9824C69.7245 8.97042 69.7877 8.95843 69.8529 8.94609C70.761 8.81618 71.7325 8.9387 72.4879 9.48491C73.1655 10.0801 73.3948 10.8752 73.4929 11.7462C73.5234 12.218 73.515 12.691 73.5113 13.1635C73.511 13.2972 73.5107 13.431 73.5105 13.5647C73.5098 13.9134 73.508 14.262 73.5059 14.6106C73.5036 15.0307 73.5027 15.4508 73.5016 15.8709C73.4998 16.5061 73.4962 17.1412 73.4929 17.7764C72.6016 17.7764 71.7103 17.7764 70.7919 17.7764C70.7888 17.4352 70.7858 17.0941 70.7826 16.7426C70.7804 16.5254 70.7781 16.3081 70.7757 16.0908C70.7719 15.7466 70.7683 15.4025 70.7654 15.0583C70.7631 14.7805 70.7602 14.5027 70.7569 14.225C70.7557 14.1195 70.7548 14.014 70.754 13.9085C70.7595 12.7038 70.7595 12.7038 70.2894 11.6206C69.9837 11.3461 69.611 11.3293 69.2152 11.3463C68.8672 11.3904 68.6434 11.4804 68.4207 11.7573C67.9781 12.4413 68.0074 13.1702 68.0021 13.9548C68.0009 14.0652 67.9997 14.1757 67.9984 14.2861C67.9952 14.5751 67.9927 14.8642 67.9904 15.1532C67.9874 15.5009 67.9835 15.8486 67.9798 16.1963C67.9743 16.723 67.9699 17.2497 67.9653 17.7764C67.0532 17.7764 66.1412 17.7764 65.2015 17.7764C65.2006 17.405 65.1997 17.0335 65.1988 16.6509C65.1975 16.4141 65.1962 16.1774 65.1945 15.9407C65.1918 15.5657 65.1895 15.1908 65.1892 14.8159C65.1889 14.5133 65.1871 14.2107 65.1843 13.9081C65.1835 13.7932 65.1832 13.6784 65.1835 13.5635C65.2006 12.5004 65.2006 12.5004 64.7273 11.5806C64.3937 11.345 64.0239 11.3268 63.6311 11.3693C63.4471 11.4308 63.2915 11.516 63.1286 11.6206C63.0716 11.6556 63.0146 11.6906 62.9559 11.7266C62.5524 12.1413 62.4919 12.6946 62.4876 13.2482C62.4869 13.2973 62.4863 13.3463 62.4857 13.3969C62.4837 13.5583 62.4821 13.7197 62.4806 13.8812C62.4793 13.9934 62.478 14.1056 62.4766 14.2178C62.4732 14.5126 62.4701 14.8074 62.467 15.1023C62.4633 15.4563 62.4592 15.8103 62.4551 16.1643C62.4489 16.7017 62.4433 17.239 62.4376 17.7764C61.5256 17.7764 60.6135 17.7764 59.6738 17.7764C59.6738 14.9158 59.6738 12.0553 59.6738 9.10803C60.5859 9.10803 61.4979 9.10803 62.4376 9.10803C62.4687 9.60552 62.4687 9.60552 62.5005 10.1131C62.5626 10.0379 62.6248 9.96277 62.6889 9.88535C63.6495 8.80891 65.395 8.55336 66.6447 9.33156Z" fill="#A9A9A9"/>
<path d="M54.21 9.52907C54.3799 9.69377 54.5169 9.85286 54.6485 10.0502C54.6692 9.7393 54.6899 9.42837 54.7113 9.10802C55.6855 9.10802 56.6598 9.10802 57.6635 9.10802C57.6635 11.9686 57.6635 14.8291 57.6635 17.7764C56.6893 17.7764 55.7151 17.7764 54.7113 17.7764C54.6906 17.4862 54.6698 17.196 54.6485 16.897C54.5863 16.9708 54.5241 17.0447 54.46 17.1207C54.3765 17.2138 54.2927 17.3067 54.2088 17.3995C54.1761 17.4391 54.1433 17.4788 54.1096 17.5197C53.6113 18.0483 52.7268 18.1664 52.0299 18.1886C50.9173 18.1442 49.9297 17.728 49.1208 16.9598C48.1469 15.9013 47.9874 14.3733 48.0402 13.0004C48.1254 11.7611 48.5112 10.7315 49.431 9.86964C50.6274 8.85177 52.8945 8.41963 54.21 9.52907ZM51.3547 11.8122C50.9122 12.3642 50.7236 13.0297 50.7618 13.7288C50.8513 14.436 51.1909 14.9821 51.7161 15.4586C52.0982 15.7289 52.4308 15.798 52.8857 15.7938C52.9335 15.795 52.9812 15.7963 53.0304 15.7976C53.4714 15.7972 53.7866 15.6628 54.1192 15.3752C54.7427 14.6676 54.9538 14.0575 54.911 13.1273C54.8842 12.83 54.7825 12.5754 54.6485 12.3115C54.6226 12.2605 54.5966 12.2095 54.57 12.157C54.3284 11.7439 53.9807 11.4865 53.5284 11.3293C52.779 11.2038 51.9286 11.2645 51.3547 11.8122Z" fill="#A9A9A9"/>
<path d="M32.2236 5.33917C34.7525 5.33917 37.2814 5.33917 39.8869 5.33917C39.8869 6.16832 39.8869 6.99746 39.8869 7.85174C38.3116 7.85174 36.7362 7.85174 35.1131 7.85174C35.1131 8.9089 35.1131 9.96606 35.1131 11.0553C36.6885 11.0553 38.2638 11.0553 39.8869 11.0553C39.8869 11.8844 39.8869 12.7135 39.8869 13.5678C38.3116 13.5678 36.7362 13.5678 35.1131 13.5678C35.1131 14.9566 35.1131 16.3455 35.1131 17.7764C34.1596 17.7764 33.206 17.7764 32.2236 17.7764C32.2236 13.6721 32.2236 9.56782 32.2236 5.33917Z" fill="#A9A9A9"/>
<path d="M82.7503 9.96338C83.4849 10.6312 83.8081 11.4103 83.9828 12.3744C83.9828 13.017 83.9828 13.6595 83.9828 14.3216C81.9099 14.3216 79.8371 14.3216 77.7014 14.3216C77.8757 15.1052 77.8757 15.1052 78.3786 15.6598C79.006 16.0121 79.7376 15.9975 80.4247 15.863C80.692 15.7834 80.8106 15.6726 80.9729 15.4477C81.1473 15.2438 81.2534 15.1654 81.5226 15.1439C81.6373 15.144 81.7519 15.1468 81.8665 15.1519C81.9272 15.1526 81.9879 15.1533 82.0505 15.1541C82.2433 15.1569 82.4357 15.1632 82.6284 15.1696C82.7595 15.1721 82.8907 15.1744 83.0218 15.1765C83.3422 15.182 83.6625 15.1906 83.9828 15.201C83.9411 15.5354 83.8694 15.7829 83.7158 16.0843C83.6792 16.1576 83.6426 16.2309 83.6049 16.3064C83.0469 17.2631 81.9931 17.713 80.9638 17.9884C79.63 18.3274 78.1369 18.2401 76.9214 17.5666C75.8884 16.9248 75.2016 15.862 74.8686 14.7115C74.5475 13.294 74.8272 11.9622 75.5785 10.7294C75.6157 10.6711 75.653 10.6128 75.6913 10.5528C75.7234 10.5022 75.7555 10.4517 75.7885 10.3996C76.3446 9.60681 77.2618 9.19336 78.1893 9.0197C79.8044 8.74855 81.4367 8.91181 82.7503 9.96338ZM78.2667 11.1809C78.2045 11.2016 78.1423 11.2224 78.0783 11.2437C77.9874 11.3819 77.9874 11.3819 77.9134 11.5539C77.8867 11.6101 77.8599 11.6664 77.8324 11.7244C77.7354 11.9981 77.7354 11.9981 77.7014 12.5628C78.8622 12.5628 80.023 12.5628 81.219 12.5628C81.219 12.0514 81.1175 11.68 80.8539 11.2437C80.5137 10.9327 80.1448 10.8968 79.7036 10.9022C79.6515 10.9024 79.5994 10.9027 79.5457 10.9029C79.085 10.9136 78.6964 11.0116 78.2667 11.1809Z" fill="#A9A9A9"/>
<path d="M46.6867 8.90389C46.7297 8.90227 46.7728 8.90066 46.8172 8.89899C47.0694 8.92996 47.3093 9.02768 47.5503 9.10804C47.5503 9.95791 47.5503 10.8078 47.5503 11.6834C46.9261 11.703 46.9261 11.703 46.733 11.7078C46.1389 11.7315 45.6068 11.8646 45.1772 12.299C44.5483 13.0279 44.5274 13.96 44.5154 14.8749C44.5141 14.9588 44.5128 15.0427 44.5114 15.1265C44.508 15.346 44.5049 15.5654 44.5018 15.7848C44.4987 16.0093 44.4952 16.2337 44.4917 16.4581C44.485 16.8976 44.4787 17.337 44.4725 17.7764C43.5189 17.7764 42.5654 17.7764 41.583 17.7764C41.583 14.9158 41.583 12.0553 41.583 9.10804C42.5365 9.10804 43.49 9.10804 44.4725 9.10804C44.4932 9.52261 44.5139 9.93719 44.5353 10.3643C44.6 10.2568 44.6648 10.1493 44.7316 10.0385C45.0909 9.4799 45.6172 9.10543 46.2693 8.94119C46.4098 8.92102 46.5448 8.90705 46.6867 8.90389Z" fill="#A9A9A9"/>
<path d="M90.5314 8.90389C90.5745 8.90227 90.6175 8.90066 90.6619 8.89899C90.9141 8.92996 91.154 9.02768 91.3951 9.10804C91.3951 9.95791 91.3951 10.8078 91.3951 11.6834C90.7434 11.6991 90.7434 11.6991 90.5421 11.7021C89.9233 11.7239 89.4202 11.8895 88.9885 12.343C88.9408 12.3919 88.9408 12.3919 88.8921 12.4418C88.4092 12.9626 88.2514 13.5853 88.2415 14.2822C88.2402 14.3601 88.239 14.4381 88.2377 14.5184C88.2366 14.6025 88.2355 14.6865 88.2345 14.7706C88.2332 14.8574 88.2319 14.9442 88.2305 15.031C88.2271 15.2583 88.224 15.4857 88.2209 15.7131C88.2178 15.9456 88.2143 16.178 88.2108 16.4104C88.204 16.8657 88.1978 17.3211 88.1916 17.7764C87.2795 17.7764 86.3674 17.7764 85.4277 17.7764C85.4277 14.9158 85.4277 12.0553 85.4277 9.10804C86.3398 9.10804 87.2519 9.10804 88.1916 9.10804C88.2226 9.85427 88.2226 9.85427 88.2544 10.6156C88.3153 10.5145 88.3761 10.4135 88.4389 10.3094C88.8735 9.6335 89.3041 9.13511 90.1113 8.94438C90.2533 8.92141 90.3877 8.90709 90.5314 8.90389Z" fill="#A9A9A9"/>
</g>
<defs>
<clipPath id="clip0_1002_8431">
<rect width="91.3945" height="25" fill="white"/>
</clipPath>
</defs>
</svg>
