<svg width="34" height="34" viewBox="0 0 34 34" fill="none" xmlns="http://www.w3.org/2000/svg">
<path d="M33.5007 28.4545C33.5007 29.3545 32.7643 30.0909 31.8643 30.0909H30.228V31.7273C30.228 32.6273 29.4916 33.3636 28.5916 33.3636C27.6916 33.3636 26.9553 32.6273 26.9553 31.7273V30.0909H25.3189C24.4189 30.0909 23.6825 29.3545 23.6825 28.4545C23.6825 27.5545 24.4189 26.8182 25.3189 26.8182H26.9553V25.1818C26.9553 24.2818 27.6916 23.5454 28.5916 23.5454C29.4916 23.5454 30.228 24.2818 30.228 25.1818V26.8182H31.8643C32.7643 26.8182 33.5007 27.5545 33.5007 28.4545ZM23.6334 18.9309L16.3353 23.3164C16.0898 23.4636 15.7953 23.5454 15.5007 23.5454C15.1898 23.5454 14.8625 23.4473 14.6007 23.2673L10.2971 20.4036L0.773438 23.0054V25.1818C0.773438 27.8818 2.98253 30.0909 5.68253 30.0909H18.7734C19.6734 30.0909 20.4098 29.3545 20.4098 28.4545C20.4098 24.7727 22.8316 21.6636 26.1698 20.6327L23.6334 18.9309ZM10.1662 17.0654L0.773438 19.6182V5.54544C0.773438 2.84544 2.98253 0.636353 5.68253 0.636353H25.3189C28.0189 0.636353 30.228 2.84544 30.228 5.54544V18.6364C30.228 18.8654 30.1789 19.0945 30.0807 19.2909L24.5825 15.6418C24.0589 15.2818 23.388 15.2654 22.848 15.5927L15.5498 19.9782L11.4916 17.2782C11.0989 17.0164 10.6243 16.9345 10.1662 17.0654ZM9.77344 12.0909C11.1316 12.0909 12.228 10.9945 12.228 9.63635C12.228 8.27817 11.1316 7.18181 9.77344 7.18181C8.41526 7.18181 7.31889 8.27817 7.31889 9.63635C7.31889 10.9945 8.41526 12.0909 9.77344 12.0909Z" fill="#231F20"/>
</svg>
