<svg width="28" height="28" viewBox="0 0 28 28" fill="none" xmlns="http://www.w3.org/2000/svg">
<path d="M27.2727 23.5455C27.2727 24.2955 26.6591 24.9091 25.9091 24.9091H24.5455V26.2727C24.5455 27.0227 23.9318 27.6364 23.1818 27.6364C22.4318 27.6364 21.8182 27.0227 21.8182 26.2727V24.9091H20.4545C19.7045 24.9091 19.0909 24.2955 19.0909 23.5455C19.0909 22.7955 19.7045 22.1818 20.4545 22.1818H21.8182V20.8182C21.8182 20.0682 22.4318 19.4546 23.1818 19.4546C23.9318 19.4546 24.5455 20.0682 24.5455 20.8182V22.1818H25.9091C26.6591 22.1818 27.2727 22.7955 27.2727 23.5455ZM19.05 15.6091L12.9682 19.2636C12.7636 19.3864 12.5182 19.4546 12.2727 19.4546C12.0136 19.4546 11.7409 19.3727 11.5227 19.2227L7.93636 16.8364L0 19.0046V20.8182C0 23.0682 1.84091 24.9091 4.09091 24.9091H15C15.75 24.9091 16.3636 24.2955 16.3636 23.5455C16.3636 20.4773 18.3818 17.8864 21.1636 17.0273L19.05 15.6091ZM7.82727 14.0546L0 16.1818V4.45456C0 2.20456 1.84091 0.363647 4.09091 0.363647H20.4545C22.7045 0.363647 24.5455 2.20456 24.5455 4.45456V15.3636C24.5455 15.5546 24.5045 15.7455 24.4227 15.9091L19.8409 12.8682C19.4045 12.5682 18.8455 12.5546 18.3955 12.8273L12.3136 16.4818L8.93182 14.2318C8.60455 14.0136 8.20909 13.9455 7.82727 14.0546ZM7.5 9.9091C8.63182 9.9091 9.54545 8.99547 9.54545 7.86365C9.54545 6.73183 8.63182 5.81819 7.5 5.81819C6.36818 5.81819 5.45455 6.73183 5.45455 7.86365C5.45455 8.99547 6.36818 9.9091 7.5 9.9091Z" fill="white"/>
</svg>
