<svg width="60" height="60" viewBox="0 0 60 60" fill="none" xmlns="http://www.w3.org/2000/svg">
<rect width="60" height="60" rx="10" fill="url(#paint0_linear_1002_8325)"/>
<path d="M38.6309 22.905V43.5C38.6309 43.6591 38.6941 43.8117 38.8066 43.9243C38.9191 44.0368 39.0717 44.1 39.2309 44.1H43.2779C43.437 44.1 43.5896 44.0368 43.7021 43.9243C43.8146 43.8117 43.8779 43.6591 43.8779 43.5V22.905C43.8779 22.7459 43.8146 22.5933 43.7021 22.4807C43.5896 22.3682 43.437 22.305 43.2779 22.305H39.2309C39.0717 22.305 38.9191 22.3682 38.8066 22.4807C38.6941 22.5933 38.6309 22.7459 38.6309 22.905ZM39.8309 23.505H42.6779V42.9H39.8309V23.505Z" fill="black"/>
<path d="M31.7279 27.519C31.5688 27.519 31.4162 27.5822 31.3037 27.6947C31.1911 27.8073 31.1279 27.9599 31.1279 28.119V43.5C31.1279 43.6591 31.1911 43.8118 31.3037 43.9243C31.4162 44.0368 31.5688 44.1 31.7279 44.1H35.7749C35.9341 44.1 36.0867 44.0368 36.1992 43.9243C36.3117 43.8118 36.3749 43.6591 36.3749 43.5V28.119C36.3749 27.9599 36.3117 27.8073 36.1992 27.6947C36.0867 27.5822 35.9341 27.519 35.7749 27.519H31.7279ZM35.1749 42.9H32.3279V28.719H35.1749V42.9Z" fill="black"/>
<path d="M24.225 32.736C24.0659 32.736 23.9133 32.7992 23.8007 32.9117C23.6882 33.0243 23.625 33.1769 23.625 33.336V43.5C23.625 43.6591 23.6882 43.8117 23.8007 43.9243C23.9133 44.0368 24.0659 44.1 24.225 44.1H28.272C28.4311 44.1 28.5837 44.0368 28.6963 43.9243C28.8088 43.8117 28.872 43.6591 28.872 43.5V33.336C28.872 33.1769 28.8088 33.0243 28.6963 32.9117C28.5837 32.7992 28.4311 32.736 28.272 32.736H24.225ZM27.672 42.9H24.825V33.936H27.672V42.9Z" fill="black"/>
<path d="M16.1221 37.665V43.5C16.1221 43.6591 16.1853 43.8117 16.2978 43.9243C16.4103 44.0368 16.5629 44.1 16.7221 44.1H20.7691C20.9282 44.1 21.0808 44.0368 21.1933 43.9243C21.3059 43.8117 21.3691 43.6591 21.3691 43.5V37.665C21.3691 37.5059 21.3059 37.3533 21.1933 37.2407C21.0808 37.1282 20.9282 37.065 20.7691 37.065H16.7221C16.5629 37.065 16.4103 37.1282 16.2978 37.2407C16.1853 37.3533 16.1221 37.5059 16.1221 37.665ZM17.3221 38.265H20.1691V42.9H17.3221V38.265Z" fill="black"/>
<path d="M18.2254 30.375C18.2782 30.4666 18.3543 30.5425 18.446 30.5952C18.5377 30.6479 18.6416 30.6754 18.7474 30.675C18.8527 30.6748 18.9562 30.6469 19.0474 30.594L40.1494 18.444L39.5284 20.199C39.5023 20.2736 39.4913 20.3527 39.496 20.4316C39.5006 20.5105 39.5208 20.5877 39.5554 20.6588C39.5899 20.7299 39.6382 20.7935 39.6974 20.8458C39.7566 20.8982 39.8256 20.9384 39.9004 20.964C39.9649 20.9869 40.0329 20.998 40.1014 20.997C40.225 20.9967 40.3456 20.9582 40.4465 20.8868C40.5475 20.8154 40.6239 20.7145 40.6654 20.598L41.8204 17.316C41.8204 17.316 41.8204 17.316 41.8204 17.295C41.8221 17.27 41.8221 17.245 41.8204 17.22V17.175C41.8234 17.1481 41.8234 17.1209 41.8204 17.094C41.8218 17.08 41.8218 17.066 41.8204 17.052C41.8175 17.0205 41.8115 16.9893 41.8024 16.959C41.8024 16.959 41.8024 16.938 41.8024 16.929C41.7879 16.8899 41.7708 16.8518 41.7514 16.815V16.797C41.7366 16.7677 41.7195 16.7396 41.7004 16.713C41.6931 16.7043 41.6851 16.6962 41.6764 16.689C41.6558 16.6675 41.6338 16.6474 41.6104 16.629L41.5714 16.608C41.5494 16.5932 41.5263 16.5802 41.5024 16.569L41.4574 16.551L41.3854 16.53H41.3644L37.9324 15.9C37.8536 15.886 37.7728 15.8877 37.6946 15.9049C37.6165 15.9222 37.5425 15.9546 37.4769 16.0004C37.3444 16.093 37.2541 16.2344 37.2259 16.3935C37.1976 16.5526 37.2337 16.7165 37.3263 16.849C37.4188 16.9815 37.5602 17.0718 37.7194 17.1L39.5194 17.424L18.4474 29.553C18.3786 29.5922 18.3183 29.6446 18.2699 29.7072C18.2215 29.7698 18.1859 29.8414 18.1653 29.9178C18.1446 29.9942 18.1393 30.0739 18.1496 30.1524C18.16 30.2309 18.1857 30.3065 18.2254 30.375Z" fill="black"/>
<defs>
<linearGradient id="paint0_linear_1002_8325" x1="30" y1="0" x2="30" y2="60" gradientUnits="userSpaceOnUse">
<stop stop-color="#1ABCFE" stop-opacity="0"/>
<stop offset="0.48" stop-color="#1ABCFE" stop-opacity="0.25"/>
<stop offset="1" stop-color="#1ABCFE"/>
</linearGradient>
</defs>
</svg>
