<svg width="16" height="14" viewBox="0 0 16 14" fill="none" xmlns="http://www.w3.org/2000/svg">
<path fill-rule="evenodd" clip-rule="evenodd" d="M9.36 0.231764C8.936 0.585764 8.878 1.21576 9.232 1.63976L12.865 5.99976L1 5.99977C0.448 5.99977 -3.30119e-07 6.44776 -3.0599e-07 6.99976C-2.81861e-07 7.55176 0.448 7.99976 1 7.99976L12.865 7.99976L9.232 12.3598C8.878 12.7848 8.936 13.4148 9.36 13.7678C9.784 14.1218 10.415 14.0648 10.768 13.6398L15.768 7.63976C15.808 7.59276 15.827 7.53676 15.857 7.48476C15.881 7.44376 15.909 7.40776 15.927 7.36276C15.973 7.24576 16 7.12376 16 6.99976C16 6.87576 15.973 6.75376 15.927 6.63676C15.909 6.59176 15.881 6.55576 15.857 6.51476C15.827 6.46276 15.808 6.40676 15.768 6.35976L10.768 0.359765C10.415 -0.0642354 9.784 -0.122236 9.36 0.231764" fill="#6F6F6F"/>
</svg>
