<svg width="60" height="60" viewBox="0 0 60 60" fill="none" xmlns="http://www.w3.org/2000/svg">
<rect width="60" height="60" rx="10" fill="url(#paint0_linear_1002_8277)"/>
<path d="M38.7483 35.011C38.683 34.9457 38.6054 34.8938 38.5201 34.8585C38.4347 34.8231 38.3432 34.8049 38.2508 34.8049C38.1584 34.8049 38.0669 34.8231 37.9816 34.8585C37.8962 34.8938 37.8186 34.9457 37.7533 35.011L37.6809 35.0835L36.352 33.7546C38.0072 31.4792 38.7959 28.6878 38.5762 25.8827C38.3565 23.0776 37.1428 20.4431 35.1535 18.4532C30.5492 13.8489 23.0575 13.8489 18.4532 18.4532C13.8489 23.0575 13.8489 30.5492 18.4532 35.1535C20.4447 37.1396 23.0788 38.3511 25.8828 38.5706C28.6868 38.7901 31.4773 38.0031 33.7536 36.351L35.0834 37.6809L35.011 37.7533C34.9457 37.8186 34.8938 37.8962 34.8585 37.9816C34.8231 38.0669 34.8049 38.1584 34.8049 38.2508C34.8049 38.3432 34.8231 38.4347 34.8585 38.5201C34.8938 38.6054 34.9457 38.683 35.011 38.7483L40.5047 44.242C41.0018 44.7306 41.6717 45.003 42.3686 45C43.0656 44.997 43.7331 44.7187 44.2259 44.2259C44.7187 43.7331 44.9969 43.0655 44.9998 42.3686C45.0028 41.6716 44.7303 41.0017 44.2417 40.5047L38.7483 35.011ZM19.4482 34.1585C15.3926 30.1029 15.3926 23.5038 19.4482 19.448C23.5038 15.3922 30.1029 15.3924 34.1586 19.448C36.1094 21.3987 37.2053 24.0445 37.2053 26.8032C37.2053 29.562 36.1094 32.2077 34.1586 34.1585C32.2079 36.1092 29.5622 37.2051 26.8034 37.2051C24.0447 37.2051 21.3989 36.1092 19.4482 34.1585ZM34.8437 35.4511C34.9482 35.3539 35.0518 35.2552 35.1535 35.1535C35.2552 35.0518 35.3538 34.9483 35.4512 34.8437L36.6859 36.0784L36.0784 36.6859L34.8437 35.4511ZM38.2508 36.5035L38.8779 37.1308L37.1307 38.878L36.5036 38.251L38.2508 36.5035ZM43.2468 43.2468C43.0149 43.4781 42.7007 43.6079 42.3732 43.6079C42.0456 43.6079 41.7315 43.4781 41.4996 43.2468L38.1257 39.8729L39.8729 38.1257L43.2468 41.4996C43.4781 41.7315 43.608 42.0456 43.608 42.3732C43.608 42.7007 43.4781 43.0149 43.2468 43.2468ZM33.7905 25.4237C33.8123 25.609 33.7596 25.7954 33.644 25.9419C33.5284 26.0883 33.3593 26.1829 33.174 26.2047C33.1464 26.2079 33.1186 26.2095 33.0909 26.2095C32.9187 26.2093 32.7525 26.1459 32.6239 26.0313C32.4954 25.9168 32.4132 25.7591 32.3931 25.588L32.2558 24.4213L28.5786 28.7717C28.4776 28.8913 28.3395 28.9737 28.1863 29.006C28.0331 29.0383 27.8735 29.0185 27.7328 28.9499L24.4704 27.3585L21.0598 31.5304C20.9416 31.6749 20.7709 31.7665 20.5852 31.7851C20.3995 31.8038 20.214 31.7479 20.0695 31.6297C19.9251 31.5116 19.8334 31.3409 19.8148 31.1552C19.7962 30.9695 19.8521 30.784 19.9702 30.6395L23.7333 26.0365C23.8337 25.9137 23.9725 25.8285 24.1274 25.7945C24.2822 25.7606 24.444 25.7799 24.5865 25.8494L27.8574 27.4448L31.267 23.411C31.2695 23.408 31.2723 23.4055 31.2749 23.4025L29.8384 23.5715C29.7462 23.5832 29.6526 23.5766 29.563 23.5519C29.4733 23.5272 29.3895 23.485 29.3162 23.4278C29.243 23.3705 29.1819 23.2993 29.1363 23.2183C29.0908 23.1372 29.0617 23.048 29.0509 22.9556C29.04 22.8633 29.0476 22.7698 29.0731 22.6804C29.0987 22.591 29.1416 22.5075 29.1996 22.4349C29.2576 22.3622 29.3294 22.3017 29.4108 22.2569C29.4923 22.2122 29.5818 22.184 29.6743 22.174L32.6586 21.8229C32.8439 21.8011 33.0303 21.8538 33.1767 21.9694C33.3232 22.085 33.4177 22.2541 33.4395 22.4394L33.7905 25.4237Z" fill="#1E1E1E"/>
<defs>
<linearGradient id="paint0_linear_1002_8277" x1="30" y1="0" x2="30" y2="60" gradientUnits="userSpaceOnUse">
<stop stop-color="#EA552B" stop-opacity="0"/>
<stop offset="0.48" stop-color="#EA552B" stop-opacity="0.25"/>
<stop offset="1" stop-color="#EA552B"/>
</linearGradient>
</defs>
</svg>
