<svg width="88" height="25" viewBox="0 0 88 25" fill="none" xmlns="http://www.w3.org/2000/svg">
<g clip-path="url(#clip0_1002_8359)">
<path d="M10.3591 0.874145C10.5339 0.874145 10.6213 0.961557 10.7961 1.04897C9.74718 1.48603 8.69823 2.6224 8.17375 5.06995L6.25068 5.59442C6.86256 3.84617 8.08634 0.874145 10.3591 0.874145ZM11.3206 1.74827C11.4954 2.27275 11.6703 2.88463 11.6703 3.84617C11.6703 3.93359 11.6703 3.93359 11.6703 4.021L9.13529 4.7203C9.65977 2.88463 10.5339 2.09792 11.3206 1.74827ZM13.5933 3.3217L12.457 3.67135C12.457 3.58393 12.457 3.49652 12.457 3.40911C12.457 2.6224 12.3696 2.01051 12.1947 1.48603C12.8066 1.66086 13.3311 2.44757 13.5933 3.3217ZM19.2752 4.7203C19.2752 4.63289 19.1877 4.54547 19.1003 4.54547C18.9255 4.54547 17.0898 4.37065 17.0898 4.37065C17.0898 4.37065 15.7786 3.05946 15.6038 2.97205C15.429 2.79722 15.1668 2.88463 15.0793 2.88463C15.0793 2.88463 14.8171 2.97205 14.38 3.14687C13.943 1.9231 13.1563 0.786732 11.8451 0.786732H11.7577C11.408 0.262257 10.8835 0.0874315 10.4465 0.0874315C7.29963 1.8882e-05 5.81361 3.93359 5.28914 5.94407C4.58984 6.1189 3.89054 6.38114 3.10382 6.64338C2.40452 6.8182 2.40452 6.90561 2.31711 7.5175C2.2297 7.95456 0.481445 21.7658 0.481445 21.7658L14.38 24.3881L21.8975 22.7273C21.8975 22.7273 19.2752 4.89512 19.2752 4.7203Z" fill="#A9A9A9"/>
<path d="M19.0137 4.54548C18.9263 4.54548 17.0906 4.37066 17.0906 4.37066C17.0906 4.37066 15.7795 3.05947 15.6046 2.97206C15.5172 2.88464 15.5172 2.88464 15.4298 2.88464L14.3809 24.3881L21.8983 22.7273C21.8983 22.7273 19.276 4.89513 19.276 4.72031C19.276 4.6329 19.1011 4.54548 19.0137 4.54548Z" fill="#A9A9A9"/>
<path d="M11.8452 8.74127L10.8837 11.5385C10.8837 11.5385 10.0969 11.1014 9.04799 11.1014C7.56197 11.1014 7.47456 11.9755 7.47456 12.2378C7.47456 13.4616 10.7962 13.986 10.7962 16.9581C10.7962 19.3182 9.31023 20.8042 7.29974 20.8042C4.9396 20.8042 3.71582 19.3182 3.71582 19.3182L4.32771 17.2203C4.32771 17.2203 5.55148 18.2692 6.60044 18.2692C7.29974 18.2692 7.56197 17.7448 7.56197 17.3077C7.56197 15.6469 4.85218 15.5595 4.85218 12.8497C4.85218 10.5769 6.51302 8.39162 9.74729 8.39162C11.2333 8.30421 11.8452 8.74127 11.8452 8.74127Z" fill="#FFFFFE"/>
<path d="M30.7267 13.8986C29.94 13.4616 29.5903 13.1119 29.5903 12.6749C29.5903 12.063 30.1148 11.7133 30.9889 11.7133C31.9505 11.7133 32.8246 12.1504 32.8246 12.1504L33.5239 10.0525C33.5239 10.0525 32.912 9.52802 31.0763 9.52802C28.454 9.52802 26.7057 11.014 26.7057 13.1119C26.7057 14.3357 27.5798 15.2098 28.6288 15.8217C29.5029 16.3462 29.8526 16.6959 29.8526 17.2203C29.8526 17.7448 29.4155 18.2693 28.5414 18.2693C27.3176 18.2693 26.0938 17.6574 26.0938 17.6574L25.3945 19.7553C25.3945 19.7553 26.4435 20.4546 28.2791 20.4546C30.9015 20.4546 32.8246 19.1434 32.8246 16.7833C32.8246 15.4721 31.8631 14.5105 30.7267 13.8986ZM41.3036 9.44061C39.9924 9.44061 38.9435 10.0525 38.1568 11.014L39.2931 5.06998H36.3211L33.4365 20.1924H36.4085L37.3701 15.035C37.7197 13.1119 38.7687 11.8882 39.7302 11.8882C40.4295 11.8882 40.6917 12.3252 40.6917 13.0245C40.6917 13.4616 40.6917 13.8986 40.6043 14.3357L39.468 20.2798H42.44L43.5763 14.1609C43.6638 13.549 43.7512 12.7623 43.7512 12.2378C43.7512 10.4896 42.877 9.44061 41.3036 9.44061ZM48.9085 18.0945C47.8596 18.0945 47.5099 17.2203 47.5099 16.1714C47.5099 14.5105 48.384 11.7133 49.9575 11.7133C51.0064 11.7133 51.3561 12.5875 51.3561 13.4616C51.3561 15.3847 50.4819 18.0945 48.9085 18.0945ZM50.3945 9.44061C46.8106 9.44061 44.4505 12.6749 44.4505 16.2588C44.4505 18.5315 45.8491 20.3672 48.5589 20.3672C52.0554 20.3672 54.4155 17.2203 54.4155 13.549C54.4155 11.4511 53.1917 9.44061 50.3945 9.44061ZM59.1358 18.1819C58.3491 18.1819 57.912 17.7448 57.912 17.7448L58.4365 14.9476C58.7861 13.1119 59.7477 11.8882 60.7966 11.8882C61.6708 11.8882 62.0204 12.7623 62.0204 13.549C61.933 15.4721 60.7966 18.1819 59.1358 18.1819ZM62.0204 9.44061C60.0099 9.44061 58.8736 11.1889 58.8736 11.1889L59.0484 9.61543H56.426C56.3386 10.6644 56.0763 12.3252 55.8141 13.549L53.7162 24.3882H56.6882L57.4749 20.0175H57.5624C57.5624 20.0175 58.1743 20.3672 59.3106 20.3672C62.8071 20.3672 65.0798 16.7833 65.0798 13.1993C65.0798 11.2763 64.2057 9.44061 62.0204 9.44061ZM69.2756 5.2448C68.3141 5.2448 67.6148 6.03152 67.6148 6.99305C67.6148 7.86718 68.1393 8.47907 69.0134 8.47907C69.975 8.47907 70.7617 7.86718 70.7617 6.73082C70.7617 5.85669 70.1498 5.2448 69.2756 5.2448ZM65.1673 20.1924H68.1393L70.1498 9.70284H67.1777L65.1673 20.1924ZM77.6673 9.70284H75.5694L75.6568 9.17837C75.8316 8.12942 76.4435 7.25529 77.405 7.25529C77.9295 7.25529 78.3666 7.43012 78.3666 7.43012L78.9784 5.06998C78.9784 5.06998 78.454 4.80774 77.405 4.80774C76.3561 4.80774 75.3071 5.06998 74.5204 5.76928C73.4714 6.6434 73.0344 7.86718 72.7721 9.09096L72.6847 9.61543H71.2861L70.8491 11.8882H72.2477L70.6743 20.1924H73.6463L75.2197 11.8882H77.2302L77.6673 9.70284ZM84.7477 9.70284C84.7477 9.70284 82.912 14.3357 82.0379 16.8707C81.9505 16.084 81.3386 9.70284 81.3386 9.70284H78.1917L79.94 19.3182C79.94 19.4931 79.94 19.6679 79.8526 19.8427C79.5029 20.542 78.891 21.1539 78.2791 21.591C77.7547 22.028 77.0554 22.2903 76.6183 22.4651L77.405 25C78.0169 24.9126 79.2407 24.3882 80.2896 23.4266C81.6008 22.2028 82.912 20.1924 84.1358 17.57L87.7197 9.79026L84.7477 9.70284Z" fill="#A9A9A9"/>
</g>
<defs>
<clipPath id="clip0_1002_8359">
<rect width="87.4126" height="25" fill="white" transform="translate(0.482422)"/>
</clipPath>
</defs>
</svg>
