<svg width="173" height="25" viewBox="0 0 173 25" fill="none" xmlns="http://www.w3.org/2000/svg">
<path fill-rule="evenodd" clip-rule="evenodd" d="M6.40985 13.2353L16.0906 3.436C16.7483 2.77022 17.6235 2.40412 18.5563 2.40412C19.4885 2.40412 20.3636 2.76987 21.0206 3.43565L21.7749 4.19912L23.2837 2.67183L22.5295 1.90835C21.4699 0.835802 20.059 0.245117 18.5556 0.245117C17.053 0.245465 15.6417 0.83615 14.5821 1.90905L4.90137 11.708L6.40985 13.2353Z" fill="#A9A9A9"/>
<path fill-rule="evenodd" clip-rule="evenodd" d="M19.3627 6.69099L17.8468 5.16596L8.12055 14.9508C6.7547 16.3248 4.53235 16.3251 3.16685 14.9514C1.801 13.5774 1.801 11.3414 3.16685 9.9674L11.5597 1.52469L10.0437 0L1.65123 8.44271C-0.550411 10.6575 -0.550411 14.2617 1.65123 16.4761C2.71582 17.5471 4.13343 18.1373 5.64318 18.1373C7.15327 18.1373 8.57157 17.5468 9.63616 16.4758L19.3627 6.69099Z" fill="#A9A9A9"/>
<path fill-rule="evenodd" clip-rule="evenodd" d="M28.9856 8.52353C27.9214 7.45255 26.5038 6.86273 24.9933 6.86273C23.4832 6.86308 22.0649 7.4529 21.0003 8.52423L11.2744 18.3089L12.7897 19.8339L22.5163 10.0489C23.8825 8.6749 26.1045 8.67524 27.47 10.0486C28.1305 10.7131 28.4942 11.5976 28.4942 12.5401C28.4942 13.483 28.1305 14.3679 27.47 15.0324L19.0775 23.4753L20.5935 25L28.9856 16.5575C31.1876 14.3426 31.1876 10.7384 28.9856 8.52353Z" fill="#A9A9A9"/>
<path fill-rule="evenodd" clip-rule="evenodd" d="M24.2264 11.7647L14.5458 21.564C13.1861 22.9397 10.9746 22.9404 9.61556 21.5644L8.86133 20.8009L7.35254 22.3282L8.10676 23.0917C9.16632 24.1642 10.5772 24.7549 12.0809 24.7549C13.5835 24.7546 14.9944 24.1639 16.0543 23.091L25.7349 13.292L24.2264 11.7647Z" fill="#A9A9A9"/>
<path fill-rule="evenodd" clip-rule="evenodd" d="M39.5772 15.0516C39.7021 15.6768 39.9947 16.1664 40.4544 16.5191C40.9138 16.8725 41.5183 17.0488 42.2678 17.0488C43.0054 17.0488 43.5756 16.8753 43.9787 16.5278C44.3818 16.1807 44.5831 15.7234 44.5831 15.1558C44.5831 14.878 44.5293 14.6436 44.4216 14.4525C44.3135 14.2615 44.1632 14.0995 43.9704 13.9662C43.777 13.8335 43.5389 13.7202 43.2552 13.6278C42.9715 13.5351 42.6534 13.4368 42.3015 13.3325L41.3824 13.0722C40.8373 12.9217 40.3491 12.7394 39.9179 12.5249C39.4863 12.3108 39.1175 12.0588 38.8112 11.7695C38.5048 11.4801 38.2719 11.1473 38.113 10.7708C37.9542 10.3947 37.8746 9.95731 37.8746 9.45975C37.8746 8.93874 37.9769 8.45832 38.1813 8.01814C38.3854 7.57866 38.675 7.20181 39.0496 6.88935C39.4242 6.57688 39.8781 6.3309 40.4119 6.15105C40.945 5.97225 41.5464 5.88232 42.2164 5.88232C43.4764 5.88232 44.4751 6.18604 45.2133 6.79382C45.9509 7.40196 46.3821 8.21514 46.5074 9.23406L44.4641 9.40761C44.3389 8.8866 44.0895 8.48141 43.7149 8.19204C43.3402 7.90267 42.8181 7.75781 42.1485 7.75781C41.5241 7.75781 41.0359 7.90547 40.6843 8.20079C40.332 8.49611 40.156 8.87541 40.156 9.33833C40.156 9.60461 40.2074 9.82715 40.3097 10.0066C40.4119 10.1865 40.5591 10.3426 40.7522 10.4755C40.945 10.6088 41.1807 10.7274 41.4586 10.8314C41.7368 10.9356 42.0517 11.0462 42.4037 11.1617L43.2723 11.4395C43.8168 11.6131 44.308 11.7954 44.7447 11.9864C45.1818 12.1775 45.5537 12.4063 45.86 12.6726C46.1667 12.9388 46.4024 13.2573 46.5667 13.6278C46.7314 13.9984 46.8137 14.4557 46.8137 14.9998C46.8137 15.5789 46.7002 16.1086 46.4734 16.5887C46.246 17.0695 45.9286 17.4775 45.5197 17.813C45.1111 18.1489 44.626 18.4096 44.0638 18.5943C43.5018 18.7794 42.8805 18.8725 42.1996 18.8725C40.9395 18.8725 39.8894 18.5716 39.0496 17.9694C38.2094 17.3672 37.6931 16.4585 37.5 15.2426L39.5772 15.0516Z" fill="#A9A9A9"/>
<path fill-rule="evenodd" clip-rule="evenodd" d="M55.6031 7.99429C54.9906 7.99429 54.4429 8.10957 53.9608 8.33944C53.4782 8.56967 53.0698 8.8887 52.7354 9.2969C52.4004 9.70545 52.1449 10.1889 51.969 10.7461C51.7934 11.3045 51.7056 11.9112 51.7056 12.5667C51.7056 13.2225 51.7961 13.832 51.9779 14.3959C52.159 14.9594 52.4175 15.4481 52.7522 15.8626C53.0866 16.2763 53.4954 16.6013 53.9779 16.8374C54.4597 17.0729 55.0074 17.1906 55.6202 17.1906C56.2331 17.1906 56.7804 17.0788 57.2629 16.8545C57.7447 16.6302 58.1535 16.3167 58.4882 15.9137C58.8229 15.5115 59.0812 15.0253 59.2626 14.4561C59.444 13.8867 59.5349 13.2626 59.5349 12.5841C59.5349 11.9168 59.444 11.3013 59.2626 10.7378C59.0812 10.1746 58.8229 9.69116 58.4882 9.28854C58.1535 8.88626 57.742 8.56967 57.254 8.33944C56.7663 8.10957 56.2159 7.99429 55.6031 7.99429ZM55.6202 6.12744C56.5393 6.12744 57.3792 6.28591 58.1395 6.60286C58.8994 6.91981 59.5462 7.36318 60.0798 7.93368C60.6127 8.50453 61.0267 9.18719 61.3223 9.98234C61.6172 10.7775 61.7647 11.6475 61.7647 12.5924C61.7647 13.5725 61.6086 14.4568 61.2969 15.2461C60.9841 16.0357 60.5393 16.7183 59.9605 17.2944L61.5946 19.2479V19.8529H59.5181L58.3775 18.4357C57.9803 18.62 57.5544 18.7638 57.101 18.8676C56.647 18.9714 56.159 19.0233 55.6374 19.0233C54.6953 19.0233 53.8472 18.8645 53.0928 18.5479C52.338 18.2309 51.6967 17.7872 51.1692 17.2167C50.6415 16.6462 50.233 15.9667 49.9439 15.1768C49.6545 14.3875 49.5098 13.5262 49.5098 12.5924C49.5098 11.6475 49.6545 10.7806 49.9439 9.9907C50.233 9.20181 50.6442 8.5216 51.1778 7.9511C51.7107 7.3806 52.3548 6.93409 53.1096 6.61122C53.8644 6.28905 54.7012 6.12744 55.6202 6.12744Z" fill="#A9A9A9"/>
<path fill-rule="evenodd" clip-rule="evenodd" d="M70.0973 17.084C70.968 17.084 71.6464 16.8094 72.1327 16.2594C72.6186 15.7094 72.862 14.8673 72.862 13.7327V6.12744H74.9992V13.7849C74.9992 14.6878 74.8861 15.4603 74.6599 16.103C74.4333 16.7454 74.1114 17.2723 73.6931 17.6834C73.2748 18.0944 72.7601 18.3953 72.1498 18.5864C71.5391 18.7774 70.8549 18.8725 70.0973 18.8725C69.328 18.8725 68.6411 18.7774 68.0366 18.5864C67.4313 18.3953 66.9197 18.0944 66.5015 17.6834C66.0832 17.2723 65.7609 16.7454 65.5343 16.103C65.3081 15.4603 65.1953 14.6878 65.1953 13.7849V6.12744H67.3326V13.7327C67.3326 14.8673 67.5756 15.7094 68.0619 16.2594C68.5482 16.8094 69.2265 17.084 70.0973 17.084Z" fill="#A9A9A9"/>
<path fill-rule="evenodd" clip-rule="evenodd" d="M81.1232 13.2851H85.2128L84.5397 11.3394C84.2748 10.5773 84.0624 9.95694 83.9014 9.47927C83.7401 9.00126 83.5962 8.58034 83.47 8.21616H82.9353C82.8661 8.40943 82.7969 8.60304 82.728 8.7963C82.6589 8.98991 82.5813 9.20622 82.4951 9.44488C82.4085 9.68389 82.314 9.95693 82.2104 10.2644C82.1068 10.5711 81.9802 10.9298 81.8307 11.3394L81.1232 13.2851ZM77.2061 18.0301L81.6065 6.37256H84.8679L89.2158 18.0301V18.6275H87.0763L85.8341 15.1284H80.4675L79.2253 18.6275H77.2061V18.0301Z" fill="#A9A9A9"/>
<path fill-rule="evenodd" clip-rule="evenodd" d="M94.0311 11.9709H95.8939C96.7145 11.9709 97.3607 11.8213 97.8335 11.5228C98.3063 11.224 98.5432 10.7363 98.5432 10.0592C98.5432 9.37137 98.3035 8.89232 97.8249 8.62167C97.3466 8.35136 96.7031 8.21587 95.8939 8.21587H94.0311V11.9709ZM101.226 18.6275H99.1578L95.4153 13.8142H94.0311V18.6275H91.9121V6.37256H95.8939C96.5202 6.37256 97.1159 6.4152 97.6796 6.50049C98.2436 6.58578 98.7536 6.78214 99.2094 7.08925C100.177 7.72615 100.662 8.6877 100.662 9.97285C100.662 10.5307 100.58 11.0169 100.414 11.4324C100.249 11.8475 100.029 12.2 99.7562 12.4902C99.4825 12.7805 99.1664 13.0164 98.808 13.198C98.4488 13.3802 98.0756 13.5168 97.6882 13.6075L101.226 18.0298V18.6275Z" fill="#A9A9A9"/>
<path fill-rule="evenodd" clip-rule="evenodd" d="M103.921 6.37256H111.889V8.24986H106.029V11.4587H111.478V13.302H106.029V16.7498H112.009V18.6275H103.921V6.37256Z" fill="#A9A9A9"/>
<path fill-rule="evenodd" clip-rule="evenodd" d="M116.784 15.0516C116.908 15.6768 117.201 16.1664 117.66 16.5191C118.12 16.8725 118.725 17.0488 119.474 17.0488C120.211 17.0488 120.781 16.8753 121.185 16.5278C121.588 16.1807 121.789 15.7234 121.789 15.1558C121.789 14.878 121.735 14.6436 121.627 14.4525C121.52 14.2615 121.369 14.0995 121.176 13.9662C120.983 13.8335 120.745 13.7202 120.461 13.6278C120.177 13.5351 119.859 13.4368 119.507 13.3325L118.588 13.0722C118.044 12.9217 117.555 12.7394 117.124 12.5249C116.692 12.3108 116.324 12.0588 116.018 11.7695C115.711 11.4801 115.478 11.1473 115.319 10.7708C115.16 10.3947 115.081 9.95731 115.081 9.45975C115.081 8.93874 115.183 8.45832 115.387 8.01814C115.591 7.57866 115.881 7.20181 116.256 6.88935C116.63 6.57688 117.084 6.3309 117.618 6.15105C118.151 5.97225 118.753 5.88232 119.422 5.88232C120.682 5.88232 121.681 6.18604 122.419 6.79382C123.157 7.40196 123.588 8.21514 123.713 9.23406L121.67 9.40761C121.545 8.8866 121.295 8.48141 120.921 8.19204C120.546 7.90267 120.024 7.75781 119.354 7.75781C118.73 7.75781 118.242 7.90547 117.89 8.20079C117.538 8.49611 117.362 8.87541 117.362 9.33833C117.362 9.60461 117.413 9.82715 117.516 10.0066C117.618 10.1865 117.765 10.3426 117.958 10.4755C118.151 10.6088 118.387 10.7274 118.665 10.8314C118.943 10.9356 119.258 11.0462 119.61 11.1617L120.478 11.4395C121.023 11.6131 121.514 11.7954 121.951 11.9864C122.388 12.1775 122.76 12.4063 123.066 12.6726C123.372 12.9388 123.608 13.2573 123.773 13.6278C123.937 13.9984 124.02 14.4557 124.02 14.9998C124.02 15.5789 123.906 16.1086 123.679 16.5887C123.452 17.0695 123.134 17.4775 122.725 17.813C122.317 18.1489 121.832 18.4096 121.27 18.5943C120.708 18.7794 120.086 18.8725 119.405 18.8725C118.146 18.8725 117.095 18.5716 116.256 17.9694C115.415 17.3672 114.899 16.4585 114.706 15.2426L116.784 15.0516Z" fill="#A9A9A9"/>
<path fill-rule="evenodd" clip-rule="evenodd" d="M129.378 12.0732H131.462C131.845 12.0732 132.195 12.0423 132.514 11.98C132.832 11.9181 133.11 11.8139 133.347 11.6671C133.585 11.5206 133.77 11.3232 133.904 11.0749C134.037 10.827 134.103 10.5223 134.103 10.1612C134.103 9.78912 134.037 9.47652 133.904 9.22273C133.77 8.96894 133.587 8.76879 133.356 8.62195C133.124 8.47511 132.849 8.37091 132.531 8.30901C132.212 8.24711 131.868 8.21581 131.497 8.21581H129.378V12.0732ZM127.206 6.37256H131.758C132.603 6.37256 133.313 6.46919 133.886 6.6628C134.459 6.85607 134.923 7.12327 135.276 7.4651C135.629 7.80624 135.884 8.20722 136.04 8.66838C136.196 9.12885 136.275 9.6268 136.275 10.1616C136.275 10.7991 136.168 11.3535 135.953 11.8256C135.739 12.2978 135.429 12.6874 135.024 12.9949C134.618 13.302 134.126 13.5324 133.547 13.6861C132.968 13.8398 132.314 13.9165 131.584 13.9165H129.378V18.6275H127.206V6.37256Z" fill="#A9A9A9"/>
<path fill-rule="evenodd" clip-rule="evenodd" d="M140.682 13.2851H144.771L144.098 11.3394C143.833 10.5773 143.621 9.95694 143.46 9.47927C143.299 9.00126 143.155 8.58034 143.029 8.21616H142.493C142.425 8.40943 142.355 8.60304 142.286 8.7963C142.217 8.98991 142.14 9.20622 142.053 9.44488C141.967 9.68389 141.873 9.95693 141.769 10.2644C141.665 10.5711 141.539 10.9298 141.389 11.3394L140.682 13.2851ZM136.765 18.0301L141.165 6.37256H144.426L148.774 18.0301V18.6275H146.635L145.393 15.1284H140.026L138.784 18.6275H136.765V18.0301Z" fill="#A9A9A9"/>
<path fill-rule="evenodd" clip-rule="evenodd" d="M161.765 15.3873C161.57 15.8658 161.315 16.316 161 16.7384C160.684 17.1607 160.303 17.5308 159.856 17.8468C159.409 18.1628 158.89 18.4127 158.3 18.5965C157.71 18.7803 157.054 18.8725 156.331 18.8725C155.414 18.8725 154.581 18.7128 153.83 18.3937C153.079 18.0753 152.438 17.6337 151.908 17.0702C151.377 16.506 150.967 15.8345 150.678 15.0541C150.389 14.2741 150.245 13.4284 150.245 12.5169C150.245 11.6061 150.389 10.7603 150.678 9.97995C150.967 9.19995 151.379 8.52494 151.916 7.95525C152.453 7.38625 153.097 6.93877 153.847 6.61451C154.598 6.28957 155.437 6.12744 156.366 6.12744C157.718 6.12744 158.851 6.44103 159.762 7.06716C160.673 7.6933 161.318 8.52494 161.696 9.56138L159.513 9.98822C159.214 9.36208 158.799 8.86916 158.266 8.51048C157.733 8.1518 157.088 7.97246 156.331 7.97246C155.724 7.97246 155.182 8.08881 154.707 8.3215C154.231 8.55419 153.83 8.87466 153.503 9.28325C153.177 9.6915 152.927 10.1738 152.755 10.73C152.583 11.2859 152.498 11.8814 152.498 12.5169C152.498 13.1636 152.586 13.7622 152.764 14.3127C152.941 14.8634 153.199 15.3395 153.538 15.7425C153.876 16.1453 154.285 16.4599 154.767 16.6867C155.248 16.9139 155.799 17.0275 156.417 17.0275C157.22 17.0275 157.882 16.8337 158.403 16.4465C158.925 16.0592 159.329 15.5866 159.616 15.0283L161.765 15.3873Z" fill="#A9A9A9"/>
<mask id="mask0_1002_8381" style="mask-type:luminance" maskUnits="userSpaceOnUse" x="164" y="6" width="9" height="13">
<path d="M164.569 6.22455H172.704V18.5982H164.569V6.22455Z" fill="white"/>
</mask>
<g mask="url(#mask0_1002_8381)">
<path fill-rule="evenodd" clip-rule="evenodd" d="M164.569 6.22455H172.583V8.12003H166.689V11.36H172.169V13.2211H166.689V16.7023H172.704V18.5982H164.569V6.22455Z" fill="#A9A9A9"/>
</g>
</svg>
