<svg width="924" height="217" viewBox="0 0 924 217" fill="none" xmlns="http://www.w3.org/2000/svg">
<path d="M74.4915 85.1175V76.6957C71.5679 76.2324 68.6149 75.9785 65.6551 75.9361C37.0015 75.8755 11.6327 94.4438 3.02816 121.776C-5.5761 149.108 4.58033 178.86 28.1016 195.225C10.4823 176.369 5.5899 148.918 15.6099 125.136C25.6298 101.353 48.6909 85.6804 74.4915 85.1175Z" fill="#25F4EE"/>
<path d="M76.0794 180.521C92.1005 180.5 105.269 167.878 105.971 151.872V9.04337H132.065C131.533 6.05893 131.278 3.03147 131.306 0L95.6159 0V142.691C95.0225 158.778 81.8225 171.521 65.7246 171.547C60.914 171.506 56.1819 170.323 51.918 168.095C54.6813 171.924 58.3104 175.045 62.5093 177.204C66.7082 179.364 71.3578 180.5 76.0794 180.521ZM180.803 57.5045V49.5656C171.199 49.5689 161.809 46.735 153.811 41.4196C160.822 49.5705 170.297 55.2168 180.803 57.5045Z" fill="#25F4EE"/>
<path d="M153.81 41.4196C145.931 32.4476 141.588 20.9145 141.591 8.97418H132.065C133.295 15.5759 135.858 21.8576 139.597 27.4359C143.335 33.0143 148.171 37.7723 153.81 41.4196ZM65.6551 111.626C51.9068 111.697 39.971 121.115 36.7058 134.47C33.4404 147.826 39.6837 161.689 51.8485 168.095C45.2571 158.995 44.3259 146.967 49.4381 136.961C54.5507 126.955 64.8425 120.661 76.0791 120.669C79.0752 120.707 82.0507 121.172 84.9154 122.05V85.7385C81.9899 85.3003 79.0371 85.0696 76.0791 85.0484H74.4912V112.661C71.6116 111.889 68.6352 111.541 65.6551 111.626Z" fill="#FE2C55"/>
<path d="M180.803 57.5045V85.1175C163.024 85.0831 145.708 79.4558 131.306 69.0329V141.587C131.23 177.79 101.859 207.099 65.6556 207.099C52.2104 207.123 39.0891 202.974 28.1016 195.225C46.4383 214.946 74.9754 221.438 100.039 211.59C125.102 201.741 141.586 177.559 141.591 150.63V78.2832C156.042 88.638 173.38 94.192 191.157 94.1609V58.6089C187.677 58.5979 184.207 58.2278 180.803 57.5045Z" fill="#FE2C55"/>
<path d="M131.305 141.587V69.0329C145.751 79.3961 163.092 84.9509 180.871 84.9105V57.2973C170.367 55.0793 160.87 49.5067 153.81 41.4196C148.171 37.7723 143.335 33.0143 139.597 27.4359C135.858 21.8576 133.295 15.5759 132.065 8.97418H105.97V151.872C105.448 164.621 96.9091 175.64 84.6944 179.328C72.4793 183.016 59.2688 178.563 51.7793 168.233C39.6148 161.827 33.3715 147.963 36.6366 134.609C39.902 121.253 51.8376 111.835 65.5859 111.764C68.5827 111.791 71.5598 112.256 74.4223 113.145V85.5318C48.4766 85.9712 25.2412 101.699 15.1932 125.624C5.14482 149.548 10.1816 177.15 28.0321 195.984C39.128 203.478 52.2684 207.36 65.6551 207.099C101.859 207.099 131.229 177.79 131.305 141.587Z" fill="black"/>
<path d="M304.301 207.184H266.57V84.5383H228.91L228.838 50.9188H345.135L334.458 84.5383H304.301V207.184ZM611.133 207.184H573.474V84.5383H535.67L535.598 50.9188H654.564L643.887 84.5383H611.133V207.184ZM352.206 100.627H389.504V207.184H352.494L352.206 100.627ZM452.559 155.312L441.521 165.99V207.184H404.294V50.486H441.521V123.28L478.459 87.2077H522.9L476.222 132.515L528.527 207.184H487.477L452.559 155.312ZM847.191 155.312L836.514 165.99V207.184H799.215L798.854 50.486H836.514V123.28L873.38 87.2077H917.821L871.143 132.515L923.087 207.184H882.037L847.191 155.312Z" fill="black"/>
<path d="M370.891 88.4341C381.251 88.4341 389.649 80.036 389.649 69.6765C389.649 59.3169 381.251 50.9188 370.891 50.9188C360.532 50.9188 352.134 59.3169 352.134 69.6765C352.134 80.036 360.532 88.4341 370.891 88.4341Z" fill="black"/>
<path d="M649.803 143.408C649.814 110.125 675.419 82.4468 708.601 79.8489H703.046C669.323 81.8159 642.983 109.737 642.983 143.517C642.983 177.297 669.323 205.217 703.046 207.184H708.601C675.336 204.58 649.701 176.775 649.803 143.408Z" fill="#25F4EE"/>
<path d="M723.102 79.6325H717.475C750.549 82.3643 776.001 110.005 776.001 143.192C776.001 176.379 750.549 204.02 717.475 206.752H723.102C758.324 206.752 786.878 178.198 786.878 142.976C786.878 107.753 758.324 79.1996 723.102 79.1996V79.6325Z" fill="#FE2C55"/>
<path d="M713.002 174.431C695.869 174.431 681.979 160.542 681.979 143.408C681.979 126.275 695.869 112.386 713.002 112.386C730.135 112.386 744.024 126.275 744.024 143.408C743.984 160.525 730.118 174.391 713.002 174.431ZM713.002 79.6324C677.779 79.6324 649.226 108.186 649.226 143.408C649.226 178.631 677.779 207.184 713.002 207.184C748.224 207.184 776.778 178.631 776.778 143.408C776.778 126.494 770.058 110.272 758.098 98.312C746.138 86.3517 729.916 79.6324 713.002 79.6324Z" fill="black"/>
</svg>
