<svg width="119" height="20" viewBox="0 0 119 20" fill="none" xmlns="http://www.w3.org/2000/svg">
<g clip-path="url(#clip0_1002_8406)">
<path d="M0.000976562 0C2.83653 0 5.67209 0 8.59357 0C8.64246 2.15111 8.69135 4.30222 8.74172 6.51852C10.3551 3.29185 10.3551 3.29185 12.001 0C14.201 0 16.401 0 18.6676 0C18.7165 2.15111 18.7654 4.30222 18.8158 6.51852C19.3282 5.48221 19.3282 5.48221 19.8391 4.44517C20.5903 2.93474 21.4074 1.48336 22.2232 0C25.3521 0 28.481 0 31.7047 0C31.3713 1.00012 31.3713 1.00012 31.1399 1.46191C31.0625 1.6174 31.0625 1.6174 30.9835 1.77603C30.9281 1.88566 30.8728 1.99528 30.8158 2.10822C30.7577 2.22431 30.6997 2.34041 30.6399 2.46002C30.4522 2.83477 30.2637 3.20907 30.0751 3.58333C29.9454 3.84164 29.8157 4.09996 29.6861 4.35829C29.0109 5.70193 28.3295 7.04165 27.6211 8.36816C27.058 9.42514 26.5278 10.4981 25.9949 11.5705C25.4832 12.598 24.9561 13.6158 24.4164 14.6288C23.8115 15.7697 23.2391 16.9267 22.6708 18.0862C22.5997 18.2302 22.5286 18.3742 22.4553 18.5226C22.3612 18.7145 22.3612 18.7145 22.2652 18.9103C21.9101 19.562 21.9101 19.562 21.6306 19.8519C21.2116 19.9231 21.2116 19.9231 20.6962 19.9191C20.5034 19.9191 20.3107 19.919 20.1121 19.919C19.9016 19.916 19.6912 19.9129 19.4807 19.9097C19.2655 19.9086 19.0502 19.9078 18.8349 19.9072C18.2686 19.9049 17.7024 19.8991 17.1362 19.8925C16.5582 19.8865 15.9803 19.8838 15.4023 19.8808C14.2685 19.8744 13.1347 19.8643 12.001 19.8519C12.2125 19.3158 12.4431 18.8004 12.7006 18.2847C12.7798 18.126 12.8591 17.9673 12.9407 17.8037C13.0247 17.6363 13.1088 17.4688 13.1954 17.2963C13.2811 17.1252 13.3668 16.9541 13.4551 16.7779C14.1365 15.4218 14.8365 14.0767 15.5565 12.7407C15.0164 13.1547 14.5516 13.5987 14.0843 14.0926C10.9714 17.2701 6.6764 18.8764 2.38061 19.6667C2.27899 19.6856 2.17736 19.7046 2.07266 19.7241C1.92517 19.7495 1.92517 19.7495 1.7747 19.7755C1.68954 19.7903 1.60438 19.8052 1.51664 19.8205C1.01357 19.8682 0.506305 19.8519 0.000976562 19.8519C0.000976562 17.163 0.000976562 14.4741 0.000976562 11.7037C1.02764 11.4593 2.05431 11.2148 3.11209 10.963C4.60649 10.4183 5.87014 9.7343 7.11209 8.74074C4.76542 8.69185 2.41875 8.64296 0.000976562 8.59259C0.000976562 5.75704 0.000976562 2.92148 0.000976562 0ZM15.7047 12.1481C15.8528 12.4444 15.8528 12.4444 15.8528 12.4444L15.7047 12.1481Z" fill="#A9A9A9"/>
<path d="M35.5566 2.81482C36.6322 2.81482 37.7078 2.81482 38.8159 2.81482C39.7481 5.96363 40.6175 9.12851 41.4826 12.2963C41.9218 11.3556 42.1992 10.3828 42.4837 9.386C42.5612 9.11797 42.5612 9.11797 42.6402 8.84452C42.7765 8.37253 42.9123 7.90039 43.0477 7.42815C43.2393 6.76037 43.4318 6.09281 43.6244 5.42533C43.7268 5.07045 43.8289 4.71547 43.9306 4.3604C43.9766 4.20064 44.0226 4.04087 44.07 3.87627C44.1105 3.73531 44.1509 3.59434 44.1926 3.4491C44.2974 3.11112 44.2974 3.11112 44.4455 2.81482C45.3255 2.81482 46.2055 2.81482 47.1122 2.81482C47.5673 3.91513 47.9538 5.02383 48.3136 6.15857C48.3686 6.33075 48.4237 6.50294 48.4804 6.68034C48.6545 7.22501 48.8278 7.76991 49.0011 8.31482C49.1197 8.68636 49.2383 9.05789 49.357 9.4294C49.6463 10.3355 49.9351 11.2417 50.2233 12.1482C50.4741 11.6878 50.6207 11.2399 50.7549 10.7338C50.7989 10.5691 50.8429 10.4045 50.8882 10.2349C50.9348 10.0579 50.9814 9.88088 51.0294 9.6985C51.078 9.51625 51.1265 9.33399 51.1766 9.14622C51.3053 8.66257 51.4335 8.17879 51.5615 7.69493C51.742 7.01262 51.9235 6.33057 52.105 5.6485C52.2015 5.28549 52.2978 4.92244 52.3938 4.55932C52.4374 4.39517 52.4809 4.23102 52.5257 4.06189C52.564 3.91728 52.6022 3.77267 52.6416 3.62368C52.7164 3.35173 52.8008 3.08239 52.89 2.81482C53.8678 2.81482 54.8455 2.81482 55.8529 2.81482C55.6863 4.14817 55.6863 4.14817 55.5417 4.65234C55.5093 4.76698 55.4769 4.88162 55.4436 4.99973C55.3907 5.18173 55.3907 5.18173 55.3367 5.36741C55.2807 5.56419 55.2807 5.56419 55.2235 5.76495C55.1009 6.19502 54.9769 6.62471 54.8529 7.0544C54.7671 7.35424 54.6813 7.65409 54.5956 7.95397C54.4163 8.58048 54.2364 9.20683 54.0561 9.83305C53.8246 10.6369 53.5942 11.441 53.3641 12.2453C53.1872 12.8635 53.0099 13.4816 52.8326 14.0997C52.7475 14.3964 52.6624 14.693 52.5774 14.9897C52.4589 15.4029 52.34 15.816 52.221 16.2291C52.1857 16.3522 52.1505 16.4754 52.1142 16.6022C51.8699 17.4475 51.8699 17.4475 51.7048 17.7778C50.7759 17.7778 49.847 17.7778 48.89 17.7778C48.1485 15.8485 47.4893 13.8983 46.8437 11.9352C46.6457 11.3334 46.4471 10.7317 46.2482 10.1302C46.1806 9.92378 46.1806 9.92378 46.1117 9.71317C46.0701 9.58736 46.0284 9.46155 45.9856 9.33193C45.9309 9.1655 45.9309 9.1655 45.8751 8.9957C45.7987 8.74019 45.7987 8.74019 45.6307 8.5926C45.5816 8.7521 45.5816 8.7521 45.5315 8.91482C45.2225 9.91767 44.913 10.9204 44.603 11.9229C44.4436 12.4383 44.2845 12.9537 44.1257 13.4693C43.9725 13.9671 43.8187 14.4646 43.6646 14.9621C43.5775 15.2439 43.4908 15.526 43.4042 15.808C43.3241 16.066 43.3241 16.066 43.2425 16.3291C43.1958 16.4805 43.149 16.6318 43.1009 16.7877C42.964 17.1852 42.964 17.1852 42.6678 17.7778C41.7389 17.7778 40.81 17.7778 39.8529 17.7778C37.4231 9.65234 37.4231 9.65234 36.4034 6.1875C36.3267 5.92733 36.2499 5.66721 36.1728 5.40716C36.0669 5.04978 35.9619 4.69217 35.857 4.3345C35.8261 4.23073 35.7952 4.12696 35.7634 4.02004C35.6415 3.60146 35.5566 3.25358 35.5566 2.81482Z" fill="#A9A9A9"/>
<path d="M102.075 6.51849C103.151 6.51849 104.226 6.51849 105.334 6.51849C105.921 8.6696 106.508 10.8207 107.112 13.037C107.748 10.8859 108.383 8.73479 109.038 6.51849C109.967 6.51849 110.896 6.51849 111.853 6.51849C112.353 7.68495 112.353 7.68495 112.482 8.13329C112.511 8.23358 112.54 8.33387 112.57 8.4372C112.599 8.54156 112.629 8.64592 112.66 8.75345C112.692 8.86343 112.723 8.97341 112.756 9.08673C112.857 9.43418 112.957 9.78186 113.057 10.1296C113.158 10.4805 113.259 10.8313 113.36 11.182C113.423 11.3993 113.486 11.6168 113.548 11.8344C113.661 12.3278 113.661 12.3278 113.927 12.7407C114 12.4738 114 12.4738 114.074 12.2014C114.254 11.5426 114.435 10.8839 114.615 10.2252C114.693 9.9398 114.771 9.6544 114.849 9.36897C114.961 8.95924 115.073 8.54962 115.186 8.14002C115.221 8.01193 115.255 7.88384 115.291 7.75186C115.324 7.63324 115.357 7.51462 115.39 7.39241C115.419 7.28779 115.448 7.18318 115.477 7.07539C115.557 6.81479 115.557 6.81479 115.705 6.51849C116.634 6.51849 117.563 6.51849 118.52 6.51849C118.418 7.33523 118.315 7.97849 118.085 8.74705C118.056 8.84379 118.028 8.94054 117.998 9.04022C117.904 9.3556 117.809 9.67055 117.714 9.98551C117.648 10.206 117.582 10.4265 117.516 10.647C117.379 11.1068 117.241 11.5663 117.103 12.0258C116.925 12.6157 116.748 13.2059 116.572 13.7963C116.436 14.2505 116.3 14.7046 116.164 15.1586C116.099 15.3763 116.033 15.5941 115.968 15.8119C115.878 16.1149 115.786 16.4177 115.695 16.7204C115.643 16.8929 115.591 17.0653 115.538 17.2429C115.409 17.6296 115.409 17.6296 115.26 17.7778C115.061 17.7905 114.862 17.7936 114.663 17.7922C114.543 17.7917 114.423 17.7913 114.299 17.7908C114.173 17.7895 114.048 17.7883 113.918 17.787C113.791 17.7863 113.665 17.7857 113.534 17.785C113.221 17.7832 112.907 17.7806 112.594 17.7778C112.037 16.4676 111.601 15.1202 111.159 13.7685C111.013 13.3252 110.868 12.8822 110.722 12.4392C110.689 12.3377 110.656 12.2362 110.622 12.1316C110.49 11.6576 110.49 11.6576 110.223 11.2592C110.2 11.3387 110.176 11.4182 110.151 11.5001C109.904 12.3245 109.657 13.1487 109.409 13.9728C109.316 14.2807 109.224 14.5887 109.131 14.8967C108.999 15.3385 108.866 15.7801 108.733 16.2216C108.692 16.3602 108.65 16.4988 108.608 16.6416C108.569 16.7691 108.531 16.8966 108.491 17.028C108.457 17.1408 108.423 17.2537 108.388 17.3699C108.297 17.6296 108.297 17.6296 108.149 17.7778C107.94 17.7906 107.729 17.7936 107.519 17.7922C107.393 17.7917 107.266 17.7913 107.136 17.7908C107.003 17.7895 106.87 17.7883 106.733 17.787C106.599 17.7863 106.465 17.7857 106.328 17.785C105.997 17.7832 105.666 17.7808 105.334 17.7778C104.931 16.4412 104.528 15.1044 104.125 13.7674C103.938 13.1466 103.751 12.5258 103.564 11.9051C103.383 11.3059 103.202 10.7065 103.022 10.1069C102.953 9.87854 102.884 9.6502 102.815 9.42192C102.718 9.10152 102.622 8.78092 102.526 8.46026C102.471 8.27801 102.416 8.09575 102.359 7.90797C102.223 7.40738 102.223 7.40738 102.075 6.51849Z" fill="#A9A9A9"/>
<path d="M67.2598 1.9259C68.1887 1.9259 69.1175 1.9259 70.0746 1.9259C70.1235 3.78368 70.1724 5.64146 70.2227 7.55553C70.6138 7.2622 71.005 6.96887 71.4079 6.66664C72.8186 6.12908 74.5267 6.15553 75.9172 6.7494C77.2974 7.52579 78.1111 8.605 78.6672 10.0741C79.1135 11.7132 78.9726 13.7479 78.2227 15.2592C77.522 16.4344 76.5346 17.2767 75.2598 17.7778C73.9677 18.0992 72.6183 18.0506 71.4079 17.4815C70.9079 17.1759 70.9079 17.1759 70.519 16.8889C70.299 16.7422 70.299 16.7422 70.0746 16.5926C70.0746 16.9837 70.0746 17.3748 70.0746 17.7778C69.1457 17.7778 68.2168 17.7778 67.2598 17.7778C67.2598 12.5466 67.2598 7.31553 67.2598 1.9259ZM70.6672 9.9259C70.1222 10.7525 69.8425 11.6119 69.964 12.603C70.1805 13.6286 70.6862 14.3689 71.5561 14.9629C72.2501 15.3595 73.0011 15.3368 73.7783 15.2592C74.5818 14.9965 75.0896 14.4661 75.5561 13.7778C75.9996 12.8636 75.9961 11.8579 75.7609 10.8784C75.4298 10.014 74.9106 9.44065 74.0746 9.03701C72.8027 8.67969 71.5949 8.9724 70.6672 9.9259Z" fill="#A9A9A9"/>
<path d="M63.8898 7.23149C65.1904 8.2661 65.9334 9.29744 66.2231 10.963C66.2231 11.5985 66.2231 12.2341 66.2231 12.8889C63.3875 12.8889 60.552 12.8889 57.6305 12.8889C58.2322 14.4435 58.2322 14.4435 59.4546 15.3056C60.4153 15.5513 61.2018 15.4736 62.0865 15.0313C62.412 14.8082 62.412 14.8082 62.6809 14.3519C62.931 14.0404 63.0535 13.9384 63.4487 13.854C63.8491 13.8385 64.2397 13.8483 64.6398 13.8704C64.8467 13.8764 64.8467 13.8764 65.0579 13.8825C65.3973 13.893 65.7359 13.9076 66.075 13.9259C65.8931 15.2634 65.2239 16.0625 64.2098 16.9242C62.6798 18.0426 60.9358 18.0689 59.112 17.9259C57.584 17.62 56.2849 16.6898 55.4083 15.4074C54.5962 13.9001 54.4085 12.1666 54.7688 10.4925C55.3788 8.70315 56.4225 7.49061 58.1247 6.64237C60.0333 5.9454 62.1582 6.26581 63.8898 7.23149ZM58.1045 9.80846C57.8521 10.1464 57.8521 10.1464 57.7787 10.963C59.5387 10.963 61.2987 10.963 63.112 10.963C62.9589 10.0443 62.8556 9.81773 62.2231 9.1852C60.8154 8.17973 59.2505 8.73463 58.1045 9.80846Z" fill="#A9A9A9"/>
<path d="M99.9082 7.25C101.166 8.23841 102.023 9.43626 102.316 11.0185C102.516 12.9548 102.119 14.4703 101.075 16.1111C99.7881 17.3978 98.2415 17.9789 96.4452 18C94.7071 17.9831 93.3565 17.4582 92.0656 16.2778C90.9607 15.1289 90.53 13.688 90.5146 12.1186C90.6056 10.197 91.1655 8.86286 92.5934 7.55556C92.9703 7.25557 93.3451 7.0239 93.7785 6.81481C93.8698 6.76784 93.9611 6.72086 94.0552 6.67245C95.929 5.87772 98.2068 6.27327 99.9082 7.25ZM94.01 10.2407C93.4726 11.2295 93.4332 12.4833 93.7369 13.5642C94.1232 14.3882 94.7182 14.9071 95.5563 15.2593C96.5735 15.3973 97.4416 15.3621 98.2797 14.7361C99.1128 13.9794 99.3354 13.092 99.4082 12C99.3348 11.0222 99.0159 10.2312 98.2797 9.55903C97.552 9.01851 96.8825 8.92457 95.9869 8.96528C95.0877 9.11515 94.5611 9.53422 94.01 10.2407Z" fill="#A9A9A9"/>
<path d="M85.7787 1.9259C85.7787 2.8059 85.7787 3.6859 85.7787 4.59257C85.3876 4.69035 84.9965 4.78813 84.5935 4.88887C83.9836 5.33823 83.9635 5.59355 83.7046 6.37035C84.7313 6.44368 84.7313 6.44368 85.7787 6.5185C85.7787 7.34961 85.7787 8.18072 85.7787 9.03701C85.0453 9.03701 84.312 9.03701 83.5565 9.03701C83.5565 11.9215 83.5565 14.8059 83.5565 17.7778C82.6276 17.7778 81.6987 17.7778 80.7416 17.7778C80.7416 14.8933 80.7416 12.0089 80.7416 9.03701C80.155 9.03701 79.5683 9.03701 78.9639 9.03701C78.9639 8.2059 78.9639 7.37479 78.9639 6.5185C79.5505 6.5185 80.1372 6.5185 80.7416 6.5185C80.7539 6.2985 80.7661 6.0785 80.7787 5.85183C80.9026 4.66475 81.3676 3.85445 82.2353 3.04222C83.2803 2.20576 84.4563 1.9259 85.7787 1.9259Z" fill="#A9A9A9"/>
<path d="M86.667 1.9259C87.6448 1.9259 88.6225 1.9259 89.63 1.9259C89.63 7.15701 89.63 12.3881 89.63 17.7778C88.6522 17.7778 87.6744 17.7778 86.667 17.7778C86.667 12.5466 86.667 7.31553 86.667 1.9259Z" fill="#A9A9A9"/>
</g>
<defs>
<clipPath id="clip0_1002_8406">
<rect width="118.519" height="20" fill="white"/>
</clipPath>
</defs>
</svg>
