<svg width="108" height="63" viewBox="0 0 108 63" fill="none" xmlns="http://www.w3.org/2000/svg">
<path d="M9.78139 12.4461C9.96413 12.3547 10.2382 12.2634 10.6037 12.172C10.9874 12.0624 11.3712 12.0075 11.7549 12.0075C12.4311 12.0075 12.9884 12.108 13.427 12.3091C13.8838 12.5101 14.1579 12.8024 14.2493 13.1862C14.5782 14.2826 14.8706 15.2785 15.1264 16.1739C15.3822 17.0693 15.6289 17.9373 15.8665 18.7779C16.104 19.6185 16.3416 20.4956 16.5791 21.4093H16.7162C16.972 19.8743 17.2004 18.4215 17.4014 17.051C17.6025 15.6622 17.7943 14.2917 17.9771 12.9395C18.1598 11.569 18.3425 10.1619 18.5253 8.71831C19.11 8.40766 19.7222 8.25234 20.3618 8.25234C20.9648 8.25234 21.4764 8.38025 21.8967 8.63608C22.317 8.89191 22.5272 9.32134 22.5272 9.92436C22.5272 10.3081 22.4815 10.8654 22.3901 11.5964C22.2987 12.3091 22.18 13.1405 22.0338 14.0907C21.8876 15.0227 21.714 15.9912 21.513 16.9962C21.3302 17.983 21.1292 18.9606 20.91 19.9291C20.7089 20.8976 20.4897 21.7747 20.2521 22.5605C20.0328 23.328 19.8318 23.9493 19.6491 24.4244C19.3933 24.6254 19.0004 24.8081 18.4704 24.9726C17.9405 25.1188 17.3923 25.1919 16.8258 25.1919C16.0949 25.1919 15.4645 25.0914 14.9345 24.8904C14.4229 24.6711 14.1031 24.3787 13.9752 24.0132C13.8107 23.4833 13.6097 22.862 13.3721 22.1493C13.1529 21.4367 12.9153 20.6509 12.6595 19.7921C12.4219 18.9332 12.1844 18.0561 11.9468 17.1607C11.7275 18.0378 11.4991 18.9332 11.2615 19.8469C11.024 20.7605 10.7956 21.6103 10.5763 22.396C10.357 23.1818 10.156 23.8579 9.97327 24.4244C9.73571 24.6254 9.37938 24.8081 8.90427 24.9726C8.42916 25.1188 7.89922 25.1919 7.31447 25.1919C6.62008 25.1919 5.98051 25.0822 5.39575 24.8629C4.82928 24.6437 4.45467 24.3604 4.27193 24.0132C4.0892 23.5929 3.87905 22.9625 3.6415 22.1219C3.40394 21.2631 3.14811 20.2854 2.87401 19.189C2.61818 18.0743 2.36235 16.914 2.10652 15.7079C1.86897 14.5019 1.64969 13.3324 1.44868 12.1994C1.24767 11.0482 1.10148 10.0157 1.01011 9.10206C1.2294 8.88277 1.53091 8.6909 1.91465 8.52644C2.31667 8.34371 2.75523 8.25234 3.23035 8.25234C3.83337 8.25234 4.31762 8.38939 4.68309 8.66349C5.06683 8.91932 5.31352 9.35788 5.42317 9.97918C5.71554 11.6603 5.9531 13.104 6.13583 14.31C6.33684 15.5161 6.5013 16.5485 6.62922 17.4074C6.7754 18.2662 6.90332 19.0154 7.01296 19.655C7.1226 20.2946 7.24138 20.8793 7.36929 21.4093H7.50634C7.68908 20.66 7.86268 19.9565 8.02714 19.2987C8.1916 18.6408 8.3652 17.983 8.54793 17.3251C8.73067 16.6673 8.92254 15.9455 9.12355 15.1597C9.32456 14.374 9.54384 13.4694 9.78139 12.4461ZM26.6631 20.3403L26.4986 17.5992L33.3238 16.5302C33.269 16.0003 33.0406 15.5252 32.6385 15.1049C32.2365 14.6663 31.6426 14.4471 30.8569 14.4471C30.0163 14.4471 29.3219 14.7303 28.7737 15.2968C28.2255 15.845 27.9423 16.6399 27.924 17.6815L28.0336 19.5454C28.2164 20.5504 28.6549 21.2722 29.3493 21.7108C30.0437 22.1311 30.866 22.3412 31.8162 22.3412C32.5837 22.3412 33.3055 22.2407 33.9816 22.0397C34.6578 21.8204 35.206 21.5829 35.6263 21.327C35.8821 21.4915 36.1014 21.7199 36.2841 22.0123C36.4668 22.3047 36.5582 22.6153 36.5582 22.9442C36.5582 23.4924 36.3389 23.9493 35.9004 24.3147C35.4801 24.6802 34.8862 24.9543 34.1187 25.1371C33.3695 25.3198 32.5106 25.4112 31.5421 25.4112C30.1351 25.4112 28.8742 25.1462 27.7595 24.6163C26.6448 24.0863 25.7677 23.2914 25.1281 22.2316C24.4886 21.1717 24.1688 19.8469 24.1688 18.2571C24.1688 17.0876 24.3515 16.0734 24.717 15.2145C25.0825 14.3557 25.5758 13.6522 26.1971 13.104C26.8367 12.5375 27.5494 12.1172 28.3351 11.8431C29.1392 11.569 29.9706 11.4319 30.8295 11.4319C32.0903 11.4319 33.1867 11.6878 34.1187 12.1994C35.0689 12.6928 35.809 13.3689 36.3389 14.2278C36.8689 15.0866 37.1338 16.0825 37.1338 17.2155C37.1338 17.782 36.9785 18.2114 36.6678 18.5038C36.3572 18.7779 35.9278 18.9606 35.3796 19.052L26.6631 20.3403ZM46.5901 11.4319C47.7779 11.4319 48.8561 11.6969 49.8246 12.2268C50.793 12.7385 51.5514 13.5151 52.0996 14.5567C52.6661 15.58 52.9493 16.85 52.9493 18.3667C52.9493 19.9017 52.6478 21.19 52.0448 22.2316C51.46 23.2732 50.6286 24.0681 49.5505 24.6163C48.4906 25.1462 47.2389 25.4112 45.7952 25.4112C44.6623 25.4112 43.6847 25.2741 42.8624 25C42.0583 24.7259 41.3822 24.4061 40.834 24.0406C40.4502 23.7665 40.1579 23.465 39.9569 23.1361C39.7741 22.8072 39.6828 22.4234 39.6828 21.9849V13.2958H43.7121V21.6834C43.9314 21.8113 44.2055 21.9301 44.5344 22.0397C44.8816 22.1493 45.2836 22.2042 45.7404 22.2042C46.6724 22.2042 47.4125 21.8844 47.9607 21.2448C48.5271 20.6052 48.8104 19.6459 48.8104 18.3667C48.8104 17.0693 48.5363 16.1282 47.9881 15.5435C47.4581 14.9404 46.7455 14.6389 45.8501 14.6389C45.247 14.6389 44.7171 14.7486 44.2603 14.9678C43.8034 15.1871 43.4197 15.4338 43.109 15.7079L42.9994 12.4461C43.4197 12.1903 43.9314 11.9619 44.5344 11.7609C45.1374 11.5416 45.8227 11.4319 46.5901 11.4319ZM43.7121 14.2552H39.6828V7.15593C39.8472 7.10111 40.0939 7.04629 40.4228 6.99147C40.7518 6.93665 41.1081 6.90924 41.4918 6.90924C42.2776 6.90924 42.8441 7.04629 43.1913 7.32039C43.5385 7.57622 43.7121 8.0696 43.7121 8.80054V14.2552ZM55.8844 19.655V9.84213C55.8844 9.47666 55.9849 9.20256 56.1859 9.01983C56.3869 8.81882 56.661 8.65435 57.0082 8.52644C57.5929 8.32543 58.3056 8.17924 59.1462 8.08788C59.9868 7.99651 60.7451 7.95082 61.4212 7.95082C63.8882 7.95082 65.752 8.48076 67.0129 9.54062C68.2921 10.5822 68.9316 12.0075 68.9316 13.8166C68.9316 14.9861 68.6484 16.0094 68.0819 16.8866C67.5337 17.7637 66.7388 18.449 65.6972 18.9423C64.6556 19.4174 63.4039 19.655 61.942 19.655H55.8844ZM58.132 25.1919C57.3097 25.1919 56.7249 25.0457 56.3777 24.7533C56.0488 24.4609 55.8844 23.9584 55.8844 23.2457V17.8185H60.0507V24.9726C59.868 25.0091 59.5939 25.0548 59.2284 25.1096C58.8812 25.1645 58.5157 25.1919 58.132 25.1919ZM60.0233 16.3658H61.6679C62.5999 16.3658 63.3399 16.1465 63.8882 15.7079C64.4364 15.2694 64.7105 14.6389 64.7105 13.8166C64.7105 12.976 64.4546 12.3456 63.943 11.9253C63.4313 11.505 62.6821 11.2949 61.6953 11.2949C61.3481 11.2949 61.0375 11.304 60.7634 11.3223C60.5076 11.3406 60.2609 11.368 60.0233 11.4045V16.3658Z" fill="#1E1E1E"/>
<path d="M14.9362 39.637C14.9362 40.039 14.8266 40.4045 14.6073 40.7334C14.388 41.0441 14.1413 41.2816 13.8672 41.4461C13.4104 41.1355 12.8896 40.8614 12.3048 40.6238C11.7384 40.3862 11.0623 40.2675 10.2765 40.2675C9.28972 40.2675 8.44 40.4776 7.72734 40.8979C7.03295 41.3182 6.49388 41.9395 6.11013 42.7618C5.72639 43.5658 5.53452 44.5435 5.53452 45.6947C5.53452 47.4672 5.97308 48.8103 6.85021 49.724C7.74561 50.6377 8.95166 51.0945 10.4684 51.0945C11.2724 51.0945 11.9577 50.9849 12.5241 50.7656C13.0906 50.5463 13.6114 50.2905 14.0865 49.9981C14.3606 50.1991 14.5799 50.4641 14.7444 50.793C14.9271 51.1037 15.0185 51.4691 15.0185 51.8894C15.0185 52.2549 14.918 52.5929 14.717 52.9036C14.5342 53.196 14.2144 53.4518 13.7576 53.6711C13.4104 53.8538 12.917 54.0274 12.2774 54.1919C11.6561 54.3746 10.8795 54.466 9.94757 54.466C8.3395 54.466 6.87762 54.1553 5.56193 53.534C4.24624 52.8945 3.19551 51.926 2.40975 50.6285C1.64226 49.3311 1.25852 47.6865 1.25852 45.6947C1.25852 43.7943 1.63313 42.1953 2.38234 40.8979C3.14983 39.5822 4.17314 38.5863 5.45229 37.9102C6.74971 37.2341 8.1659 36.896 9.70088 36.896C10.779 36.896 11.711 37.0239 12.4967 37.2797C13.2825 37.5173 13.8855 37.8462 14.3058 38.2665C14.7261 38.6685 14.9362 39.1254 14.9362 39.637ZM30.3297 47.4215C30.3297 48.8469 30.0464 50.0895 29.4799 51.1493C28.9135 52.1909 28.1094 52.995 27.0678 53.5614C26.0262 54.1279 24.8019 54.4112 23.3949 54.4112C21.9878 54.4112 20.7635 54.1371 19.7219 53.5888C18.6803 53.0224 17.8763 52.2183 17.3098 51.1767C16.7433 50.1169 16.4601 48.8651 16.4601 47.4215C16.4601 45.9962 16.7433 44.7627 17.3098 43.7212C17.8945 42.6796 18.7077 41.8755 19.7493 41.3091C20.8092 40.7243 22.0244 40.4319 23.3949 40.4319C24.7837 40.4319 25.9988 40.7243 27.0404 41.3091C28.082 41.8755 28.8861 42.6887 29.4525 43.7486C30.0373 44.7902 30.3297 46.0145 30.3297 47.4215ZM23.3949 43.6389C22.536 43.6389 21.8508 43.9678 21.3391 44.6257C20.8457 45.2835 20.599 46.2155 20.599 47.4215C20.599 48.6459 20.8457 49.5869 21.3391 50.2448C21.8325 50.9026 22.5177 51.2316 23.3949 51.2316C24.2903 51.2316 24.9755 50.9026 25.4506 50.2448C25.944 49.5687 26.1907 48.6276 26.1907 47.4215C26.1907 46.2338 25.944 45.311 25.4506 44.6531C24.9572 43.977 24.272 43.6389 23.3949 43.6389ZM45.4635 45.4754V48.052H41.4342V45.6125C41.4342 44.9181 41.2332 44.4155 40.8312 44.1049C40.4292 43.7943 39.9084 43.6389 39.2688 43.6389C38.812 43.6389 38.3917 43.6937 38.008 43.8034C37.6242 43.913 37.2679 44.0501 36.939 44.2145V48.052H32.9096V43.776C32.9096 43.3191 33.001 42.9445 33.1837 42.6522C33.3848 42.3415 33.6771 42.0674 34.0609 41.8298C34.6456 41.4278 35.3857 41.0989 36.2811 40.8431C37.1948 40.569 38.1998 40.4319 39.2962 40.4319C41.2698 40.4319 42.7865 40.8705 43.8463 41.7476C44.9245 42.6065 45.4635 43.8491 45.4635 45.4754ZM32.9096 46.7911H36.939V53.9726C36.7745 54.0091 36.5278 54.0548 36.1989 54.1096C35.87 54.1645 35.5136 54.1919 35.1299 54.1919C34.3624 54.1919 33.7959 54.0548 33.4304 53.7807C33.0832 53.5066 32.9096 53.0132 32.9096 52.3006V46.7911ZM41.4342 46.7911H45.4635V53.9726C45.2991 54.0091 45.0524 54.0548 44.7235 54.1096C44.3945 54.1645 44.0382 54.1919 43.6545 54.1919C42.887 54.1919 42.3205 54.0548 41.955 53.7807C41.6078 53.5066 41.4342 53.0132 41.4342 52.3006V46.7911ZM58.6342 40.569C59.1824 40.569 59.6483 40.6969 60.0321 40.9527C60.4158 41.1903 60.6077 41.6014 60.6077 42.1862C60.6077 42.5151 60.5072 43.0268 60.3062 43.7212C60.1235 44.4155 59.8768 45.2196 59.5661 46.1333C59.2737 47.0287 58.9448 47.9606 58.5793 48.9291C58.2139 49.8793 57.8484 50.7747 57.4829 51.6153C57.1175 52.4376 56.7885 53.1229 56.4962 53.6711C56.2952 53.8173 55.9754 53.9452 55.5368 54.0548C55.1165 54.1827 54.6414 54.2467 54.1115 54.2467C53.4902 54.2467 52.9511 54.1645 52.4943 54C52.0557 53.8355 51.7542 53.5797 51.5897 53.2325C51.3887 52.8488 51.142 52.3097 50.8497 51.6153C50.5573 50.9209 50.2375 50.1352 49.8903 49.258C49.5614 48.3626 49.2324 47.4398 48.9035 46.4896C48.5929 45.5394 48.2914 44.6257 47.999 43.7486C47.7249 42.8714 47.5147 42.104 47.3686 41.4461C47.5878 41.2086 47.8802 41.0075 48.2457 40.8431C48.6294 40.6603 49.0406 40.569 49.4791 40.569C50.0456 40.569 50.5025 40.6878 50.8497 40.9253C51.2151 41.1629 51.4892 41.6106 51.672 42.2684L52.878 46.6266C53.0242 47.1383 53.1704 47.65 53.3166 48.1616C53.481 48.6733 53.6272 49.1575 53.7551 49.6144C53.9013 50.0529 54.011 50.4184 54.0841 50.7108H54.2211C54.6597 49.2306 55.0982 47.65 55.5368 45.9688C55.9936 44.2694 56.3957 42.6156 56.7429 41.0075C57.3093 40.7152 57.9398 40.569 58.6342 40.569ZM64.6738 49.3403L64.5094 46.5992L71.3345 45.5302C71.2797 45.0003 71.0513 44.5252 70.6493 44.1049C70.2473 43.6663 69.6534 43.4471 68.8676 43.4471C68.027 43.4471 67.3326 43.7303 66.7844 44.2968C66.2362 44.845 65.953 45.6399 65.9347 46.6815L66.0444 48.5454C66.2271 49.5504 66.6657 50.2722 67.36 50.7108C68.0544 51.1311 68.8767 51.3412 69.827 51.3412C70.5945 51.3412 71.3163 51.2407 71.9924 51.0397C72.6685 50.8204 73.2167 50.5829 73.637 50.327C73.8928 50.4915 74.1121 50.7199 74.2948 51.0123C74.4776 51.3047 74.5689 51.6153 74.5689 51.9442C74.5689 52.4924 74.3497 52.9493 73.9111 53.3147C73.4908 53.6802 72.8969 53.9543 72.1294 54.1371C71.3802 54.3198 70.5214 54.4112 69.5529 54.4112C68.1458 54.4112 66.8849 54.1462 65.7703 53.6163C64.6556 53.0863 63.7784 52.2914 63.1389 51.2316C62.4993 50.1717 62.1795 48.8469 62.1795 47.2571C62.1795 46.0876 62.3622 45.0734 62.7277 44.2145C63.0932 43.3557 63.5866 42.6522 64.2079 42.104C64.8474 41.5375 65.5601 41.1172 66.3459 40.8431C67.1499 40.569 67.9813 40.4319 68.8402 40.4319C70.1011 40.4319 71.1975 40.6878 72.1294 41.1994C73.0797 41.6928 73.8197 42.3689 74.3497 43.2278C74.8796 44.0866 75.1446 45.0825 75.1446 46.2155C75.1446 46.782 74.9892 47.2114 74.6786 47.5038C74.3679 47.7779 73.9385 47.9606 73.3903 48.052L64.6738 49.3403ZM81.668 44.379V47.8053H77.6387V43.8856C77.6387 43.374 77.7575 42.9445 77.995 42.5973C78.2508 42.2319 78.598 41.9121 79.0366 41.638C79.6396 41.2725 80.3614 40.9893 81.202 40.7883C82.0609 40.569 82.9563 40.4593 83.8882 40.4593C85.7521 40.4593 86.6841 41.0806 86.6841 42.3232C86.6841 42.6156 86.6384 42.8897 86.547 43.1455C86.4739 43.3831 86.3734 43.5932 86.2455 43.776C86.0628 43.7394 85.8343 43.712 85.5602 43.6937C85.3044 43.6755 85.0303 43.6663 84.7379 43.6663C84.1715 43.6663 83.6141 43.7303 83.0659 43.8582C82.536 43.9678 82.07 44.1414 81.668 44.379ZM77.6387 46.7637L81.668 46.8459V53.9726C81.5035 54.0091 81.2568 54.0548 80.9279 54.1096C80.599 54.1645 80.2426 54.1919 79.8589 54.1919C79.0914 54.1919 78.5249 54.0548 78.1595 53.7807C77.8123 53.5066 77.6387 53.0132 77.6387 52.3006V46.7637ZM88.7754 46.7637H92.7773V49.6966C92.7773 50.2265 92.9417 50.6103 93.2707 50.8478C93.5996 51.0671 94.0564 51.1767 94.6412 51.1767C94.9335 51.1767 95.2351 51.1493 95.5457 51.0945C95.8564 51.0397 96.1305 50.9666 96.368 50.8752C96.5142 51.0397 96.6421 51.2407 96.7518 51.4783C96.8614 51.6975 96.9162 51.9625 96.9162 52.2732C96.9162 52.8945 96.6604 53.4061 96.1487 53.8081C95.6553 54.1919 94.8056 54.3837 93.5996 54.3837C92.0829 54.3837 90.8951 54.0457 90.0362 53.3696C89.1957 52.6752 88.7754 51.5422 88.7754 49.9707V46.7637ZM91.2971 44.2694V41.1446H96.5873C96.6787 41.2908 96.77 41.5009 96.8614 41.775C96.9528 42.0491 96.9984 42.3506 96.9984 42.6796C96.9984 43.2278 96.8705 43.6298 96.6147 43.8856C96.3772 44.1414 96.0482 44.2694 95.6279 44.2694H91.2971ZM92.7773 47.449H88.7754V37.6087C88.9398 37.5539 89.1865 37.499 89.5155 37.4442C89.8444 37.3711 90.1916 37.3346 90.557 37.3346C91.3245 37.3346 91.8819 37.4716 92.2291 37.7457C92.5945 38.0198 92.7773 38.5132 92.7773 39.2259V47.449Z" fill="#1E1E1E"/>
<path d="M78.097 14.7851C77.9002 14.3102 78.009 13.7635 78.3724 13.4L84.1556 7.61682C84.6521 7.12024 85.4568 7.12024 85.9533 7.61682C86.4497 8.11311 86.4497 8.91807 85.9533 9.41436L82.3402 13.0275H106.729C107.431 13.0275 108 13.5966 108 14.2987C108 15.0009 107.431 15.5699 106.729 15.5699H79.2713C78.7571 15.5699 78.2937 15.2601 78.097 14.7851ZM106.729 18.4301H79.2712C78.5692 18.4301 78 18.9992 78 19.7013C78 20.4034 78.5692 20.9725 79.2712 20.9725H103.66L100.047 24.5857C99.5503 25.082 99.5501 25.8869 100.047 26.3832C100.295 26.6315 100.62 26.7556 100.945 26.7556C101.271 26.7556 101.596 26.6315 101.844 26.3832L107.628 20.6001C107.991 20.2366 108.1 19.6899 107.903 19.2149C107.706 18.74 107.243 18.4301 106.729 18.4301Z" fill="#EA552B"/>
</svg>
