<svg width="52" height="20" viewBox="0 0 52 20" fill="none" xmlns="http://www.w3.org/2000/svg">
<path d="M29.6715 0.383089C28.6444 0.927457 28.2747 1.82618 28.2747 4.31179C28.2747 4.31179 28.7934 3.81364 29.556 3.53375C30.0261 3.3633 30.469 3.12544 30.8707 2.82761C31.7386 2.19337 31.8593 1.38452 31.8593 0.0133312C31.8593 0.0133312 30.4393 -0.0277556 29.6715 0.383089ZM23.6398 0.97111C22.8181 1.70549 22.5665 2.8687 22.5665 2.8687L19.7984 13.5019L17.5157 4.78426C17.2923 3.8727 16.884 2.70949 16.2446 1.94173C15.4486 0.97111 13.8207 0.912051 13.6383 0.912051C13.4637 0.912051 11.8178 0.971111 11.0038 1.95714C10.3721 2.73517 9.96129 3.88554 9.7379 4.80223L7.45514 13.5198L4.7179 2.87127C4.7179 2.87127 4.48166 1.69266 3.64457 0.973678C2.28621 -0.220338 0.270508 0.0313055 0.270508 0.0313055L5.52931 19.9675C5.52931 19.9675 7.2677 20.101 8.13561 19.644C9.26799 19.0688 9.82777 18.6143 10.5211 15.8873C11.1399 13.4736 12.8629 6.37628 13.0221 5.86016C13.0965 5.60851 13.2018 5.00765 13.6409 5.00765C14.1005 5.00765 14.1904 5.59567 14.2597 5.86016C14.4241 6.36087 16.1317 13.4736 16.7659 15.8873C17.4541 18.5963 18.001 19.038 19.1514 19.644C20.0193 20.101 21.7577 19.9675 21.7577 19.9675L27.0165 0.0441422C27.0113 0.0441422 24.9905 -0.210067 23.6398 0.97111ZM31.8593 3.28211C31.8593 3.28211 31.528 3.78282 30.7808 4.22448C30.2981 4.49153 29.8384 4.68155 29.3377 4.92035C28.5083 5.31579 28.2747 5.77285 28.2747 6.44818V19.9701C28.2747 19.9701 29.615 20.1319 30.4676 19.703C31.5871 19.133 31.8362 18.5861 31.8567 16.0979L31.8593 3.28211ZM44.9858 10.0405L51.6594 0.0903638C51.6594 0.0903638 48.8451 -0.394946 47.4457 0.883807C46.547 1.69266 45.5507 3.15629 45.5507 3.15629L43.1061 6.71523C42.9701 6.8924 42.8391 7.10039 42.5926 7.10039C42.3384 7.10039 42.1792 6.90781 42.0739 6.71523L39.6037 3.16656C39.6037 3.16656 38.6151 1.70806 37.7035 0.896646C36.3169 -0.384675 33.4898 0.100634 33.4898 0.100634L40.1737 10.0251L33.4898 19.9316C33.4898 19.9316 36.4325 20.3142 37.8242 19.0328C38.7229 18.224 39.5909 16.8836 39.5909 16.8836L42.0302 13.3324C42.1663 13.1578 42.2973 12.9549 42.5438 12.9549C42.8006 12.9549 42.9572 13.1475 43.0625 13.3324L45.507 16.8836C45.507 16.8836 46.4186 18.1932 47.3045 19.0328C48.6859 20.3142 51.5849 19.9316 51.5849 19.9316L44.9858 10.0405Z" fill="#A9A9A9"/>
</svg>
