<svg width="110" height="25" viewBox="0 0 110 25" fill="none" xmlns="http://www.w3.org/2000/svg">
<g clip-path="url(#clip0_1002_8416)">
<path d="M19.7152 4.2683C19.7152 4.40245 19.7152 4.53659 19.7152 4.6748C19.4847 4.7293 19.2541 4.7838 19.0166 4.83995C18.6581 4.95942 18.6581 4.95942 18.2925 5.08131C17.9977 5.96567 17.9035 6.83538 18.2425 7.71445C18.4516 8.11419 18.6744 8.50295 18.9022 8.89228C20.2898 11.5064 19.6546 13.5284 18.822 16.2498C18.5218 17.2058 18.2075 18.1568 17.886 19.1057C17.4095 18.6292 17.3092 18.2891 17.0975 17.652C17.0243 17.4336 16.951 17.2152 16.8756 16.9902C16.7977 16.7535 16.7198 16.5168 16.6395 16.2729C16.5588 16.0308 16.4782 15.7887 16.3951 15.5393C16.2247 15.0269 16.0548 14.5144 15.8857 14.0016C15.6687 13.3436 15.4501 12.6862 15.2309 12.029C15.0222 11.4029 14.8146 10.7764 14.6069 10.1499C14.5282 9.9132 14.4494 9.6765 14.3683 9.43262C14.2604 9.10502 14.2604 9.10502 14.1503 8.77081C14.0547 8.48153 14.0547 8.48153 13.9571 8.18641C13.8209 7.72358 13.8209 7.72358 13.8209 7.31708C14.2904 7.25001 14.76 7.18293 15.2437 7.11383C15.2437 6.97968 15.2437 6.84554 15.2437 6.70732C13.2986 6.70732 11.3535 6.70732 9.34939 6.70732C9.34939 6.84147 9.34939 6.97562 9.34939 7.11383C9.53462 7.11147 9.71986 7.10911 9.91071 7.10668C10.5689 7.31708 10.5689 7.31708 10.7996 7.65064C11.0069 8.11324 11.1794 8.57791 11.3438 9.05743C11.4045 9.21738 11.4651 9.37733 11.5276 9.54213C12.1361 11.2084 12.3555 12.4952 11.7257 14.1832C11.6758 14.3253 11.6259 14.4673 11.5744 14.6137C11.4161 15.0621 11.253 15.5086 11.0897 15.9553C10.9808 16.2611 10.8721 16.5671 10.7638 16.8731C10.4992 17.6186 10.2303 18.3625 9.95914 19.1057C9.38426 18.8183 9.37567 18.5063 9.17065 17.9034C9.09743 17.6904 9.02422 17.4773 8.94878 17.2579C8.87085 17.0258 8.79293 16.7938 8.71264 16.5547C8.63201 16.3178 8.55138 16.0809 8.4683 15.8369C8.25399 15.2057 8.04113 14.5741 7.82877 13.9422C7.69832 13.5554 7.5668 13.169 7.43487 12.7827C7.18192 12.0419 6.93072 11.3004 6.68012 10.5588C6.56199 10.2126 6.56199 10.2126 6.44148 9.8594C6.36954 9.64445 6.29761 9.4295 6.22349 9.20803C6.15973 9.01908 6.09596 8.83013 6.03026 8.63545C5.8941 8.13009 5.8941 8.13009 5.8941 7.31708C6.29654 7.25001 6.69898 7.18293 7.11361 7.11383C7.11361 6.97968 7.11361 6.84554 7.11361 6.70732C5.9063 6.70732 4.69898 6.70732 3.45508 6.70732C4.30041 4.59398 6.14094 3.41624 8.12987 2.43903C12.0656 0.77932 16.433 1.62821 19.7152 4.2683Z" fill="#A9A9A9"/>
<path d="M50.2031 9.75611C51.1262 9.73836 52.0492 9.72755 52.9724 9.718C53.3643 9.71034 53.3643 9.71034 53.764 9.70252C54.1433 9.69957 54.1433 9.69957 54.5302 9.69657C54.8782 9.69178 54.8782 9.69178 55.2333 9.68689C56.2198 9.79022 56.8816 10.1459 57.5964 10.8232C58.0281 11.5537 58.0442 11.9675 57.9267 12.8049C57.4608 13.7022 57.0004 14.1827 56.0974 14.6342C56.9446 15.695 57.6779 16.5405 58.943 17.0732C59.4795 17.0732 60.0161 17.0732 60.569 17.0732C60.569 14.9268 60.569 12.7805 60.569 10.5691C60.0995 10.502 59.63 10.435 59.1462 10.3659C59.1462 10.1646 59.1462 9.96343 59.1462 9.75611C59.9848 9.74091 60.8234 9.72991 61.6621 9.72262C61.9467 9.71957 62.2313 9.71543 62.516 9.71011C64.3896 9.67603 65.9761 9.66851 67.5431 10.8232C68.4197 11.7202 68.7292 12.5716 68.788 13.8084C68.745 15.0928 68.3203 16.0172 67.4287 16.9334C66.052 17.7783 64.8139 17.987 63.2303 18.0101C63.0425 18.0135 62.8546 18.017 62.6611 18.0206C62.2662 18.0263 61.8713 18.0303 61.4764 18.0327C60.8751 18.0386 60.2751 18.0576 59.6742 18.0767C56.8727 18.1234 56.8727 18.1234 55.8866 17.4892C55.4767 17.0297 55.176 16.5935 54.8779 16.0569C54.7102 15.8599 54.5426 15.6629 54.3698 15.4599C54.0649 15.0407 54.0649 15.0407 54.0649 14.6342C53.9308 14.6342 53.7966 14.6342 53.6584 14.6342C53.6816 14.9646 53.7075 15.2949 53.7346 15.625C53.7488 15.8089 53.7629 15.9929 53.7775 16.1824C53.8201 16.7031 53.8201 16.7031 54.2682 17.0732C54.7906 17.2048 54.7906 17.2048 55.2844 17.2764C55.2844 17.4777 55.2844 17.6789 55.2844 17.8862C53.6076 17.8862 51.9308 17.8862 50.2031 17.8862C50.2031 17.685 50.2031 17.4838 50.2031 17.2764C50.4002 17.2219 50.5972 17.1674 50.8002 17.1113C51.1083 16.9918 51.1083 16.9918 51.4226 16.8699C51.7519 15.8822 51.6634 14.868 51.664 13.8339C51.6665 13.6108 51.669 13.3877 51.6715 13.1578C51.6719 12.9431 51.6723 12.7284 51.6727 12.5072C51.6736 12.3109 51.6744 12.1147 51.6753 11.9125C51.6237 11.3587 51.53 11.0287 51.2194 10.5691C50.7 10.4041 50.7 10.4041 50.2031 10.3659C50.2031 10.1646 50.2031 9.96343 50.2031 9.75611ZM53.6584 10.5691C53.6584 11.5752 53.6584 12.5813 53.6584 13.6179C54.951 13.7079 54.951 13.7079 55.5766 13.4146C56.0079 12.8625 55.9957 12.4487 55.9617 11.7624C55.9174 11.3554 55.9174 11.3554 55.6147 10.9883C54.8505 10.4886 54.7405 10.5691 53.6584 10.5691ZM62.6015 10.5691C62.5965 11.3684 62.5928 12.1678 62.5903 12.9671C62.5888 13.3726 62.5862 13.7781 62.5836 14.1836C62.583 14.4384 62.5823 14.6932 62.5817 14.9557C62.5806 15.1909 62.5795 15.4262 62.5784 15.6685C62.5745 16.2736 62.5745 16.2736 62.8048 16.8699C63.8092 17.1149 64.4871 17.0577 65.447 16.6667C66.2026 15.952 66.4804 15.243 66.6665 14.2277C66.6665 13.1483 66.5411 12.248 65.8535 11.3821C65.0626 10.6677 64.4224 10.5599 63.3859 10.5652C63.1271 10.5665 62.8682 10.5678 62.6015 10.5691Z" fill="#A9A9A9"/>
<path d="M78.252 9.75612C79.0653 9.73588 79.8786 9.7212 80.6921 9.71146C80.9683 9.7074 81.2445 9.70187 81.5206 9.69479C84.3965 9.62297 84.3965 9.62297 85.569 10.5691C86.1152 11.3884 86.1128 12.0457 85.9755 13.0082C85.4988 13.8203 84.9464 14.1698 84.1463 14.6342C84.4668 14.9657 84.7889 15.2957 85.1117 15.625C85.2909 15.809 85.4701 15.9929 85.6548 16.1824C86.2911 16.7705 86.6847 17.0592 87.5507 17.0986C87.7016 17.0902 87.8526 17.0818 88.0081 17.0732C88.4146 16.395 88.4668 15.8758 88.4685 15.0907C88.4691 14.8668 88.4696 14.6429 88.4701 14.4123C88.4678 14.0631 88.4678 14.0631 88.4654 13.7068C88.4669 13.4733 88.4685 13.2397 88.4701 12.999C88.4696 12.7754 88.4691 12.5518 88.4685 12.3214C88.4681 12.1169 88.4676 11.9124 88.4672 11.7017C88.4509 11.1302 88.4509 11.1302 88.0081 10.5691C87.4872 10.4208 87.4872 10.4208 86.9918 10.3659C86.9918 10.1647 86.9918 9.96344 86.9918 9.75612C89.4064 9.75612 91.8211 9.75612 94.3089 9.75612C94.4095 10.9634 94.4095 10.9634 94.5121 12.1951C94.3109 12.1951 94.1097 12.1951 93.9024 12.1951C93.8319 11.9997 93.7614 11.8042 93.6888 11.6029C93.3474 10.9112 93.3474 10.9112 92.6106 10.7676C92.3536 10.744 92.0965 10.7205 91.8317 10.6962C91.4438 10.6561 91.4438 10.6561 91.0481 10.6152C90.7506 10.5924 90.7506 10.5924 90.4471 10.5691C90.4471 11.4411 90.4471 12.313 90.4471 13.2114C90.7112 13.1276 90.9753 13.0437 91.2474 12.9573C91.4702 12.8866 91.4702 12.8866 91.6976 12.8144C92.1149 12.632 92.1149 12.632 92.2263 12.1729C92.2511 11.9827 92.2511 11.9827 92.2763 11.7886C92.4776 11.7886 92.6788 11.7886 92.8861 11.7886C92.8861 12.996 92.8861 14.2033 92.8861 15.4472C92.6849 15.4472 92.4837 15.4472 92.2763 15.4472C92.1757 14.8435 92.1757 14.8435 92.0731 14.2277C91.5365 14.1606 90.9999 14.0935 90.4471 14.0244C90.4757 14.3887 90.5056 14.7528 90.536 15.1169C90.5525 15.3197 90.569 15.5225 90.586 15.7314C90.6198 16.256 90.6198 16.256 90.8536 16.6667C91.899 16.9396 92.935 16.9825 93.9024 16.4634C94.1949 15.9533 94.1949 15.9533 94.3089 15.4472C94.5101 15.4472 94.7113 15.4472 94.9186 15.4472C94.9241 15.7774 94.928 16.1077 94.9313 16.438C94.9337 16.622 94.936 16.8059 94.9385 16.9954C94.9186 17.4797 94.9186 17.4797 94.7154 17.8862C93.3131 17.9641 91.9114 18.0171 90.5074 18.0537C90.031 18.0689 89.5547 18.0897 89.0787 18.1162C85.2131 18.3261 85.2131 18.3261 84.0937 17.5804C83.2496 16.776 82.6891 15.8427 82.1137 14.8374C81.9796 14.7703 81.8454 14.7033 81.7072 14.6342C81.8414 15.372 81.9755 16.1098 82.1137 16.8699C82.5162 17.0041 82.9186 17.1382 83.3333 17.2764C83.3333 17.4777 83.3333 17.6789 83.3333 17.8862C81.6564 17.8862 79.9796 17.8862 78.252 17.8862C78.252 17.685 78.252 17.4838 78.252 17.2764C78.9562 17.1758 78.9562 17.1758 79.6747 17.0732C79.6747 14.9269 79.6747 12.7805 79.6747 10.5691C79.2052 10.5021 78.7357 10.435 78.252 10.3659C78.252 10.1647 78.252 9.96344 78.252 9.75612ZM81.7072 10.5691C81.7072 11.5752 81.7072 12.5813 81.7072 13.6179C82.8773 13.7476 82.8773 13.7476 83.8541 13.1987C84.2391 12.4119 84.2045 12.0094 83.943 11.1789C83.1601 10.4855 82.8135 10.5691 81.7072 10.5691Z" fill="#A9A9A9"/>
<path d="M17.4796 0.813026C17.7614 0.935251 17.7614 0.935251 18.0488 1.05995C21.0476 2.52325 23.2286 5.10261 24.3774 8.20632C25.4632 11.4085 25.2374 14.8117 23.9185 17.906C22.3544 20.9447 19.9139 23.2465 16.6666 24.3903C13.268 25.4776 9.86014 25.2304 6.65085 23.6789C3.3972 21.8863 1.27472 19.2098 0.162665 15.6925C-0.430299 13.0747 -0.266371 9.97616 0.812913 7.52034C0.923348 7.25388 0.923348 7.25388 1.03601 6.98204C2.42549 3.92049 4.86969 2.00577 7.88545 0.648678C10.8486 -0.453461 14.5763 -0.493262 17.4796 0.813026ZM3.4401 4.77565C1.57786 7.20242 0.246798 10.292 0.609661 13.4147C1.09059 16.9284 2.62727 19.6995 5.34956 21.9314C8.26913 23.9876 11.5216 24.6444 15.012 24.0544C18.4036 23.1764 20.9548 21.1987 22.7668 18.2433C24.2585 15.5876 24.616 12.466 23.9709 9.50205C23.0224 6.28138 20.9372 3.76286 18.0893 2.03254C13.2028 -0.484393 7.01928 0.468499 3.4401 4.77565Z" fill="#A9A9A9"/>
<path d="M25.8135 7.31708C27.6245 7.31708 29.4354 7.31708 31.3013 7.31708C31.3013 7.5183 31.3013 7.71952 31.3013 7.92683C30.8988 8.06098 30.4964 8.19513 30.0818 8.33334C30.1961 9.59559 30.4886 10.6968 30.9075 11.8902C30.9647 12.0574 31.022 12.2246 31.081 12.3968C31.2207 12.8043 31.3624 13.2112 31.5045 13.6179C31.924 12.9887 32.1008 12.4753 32.3223 11.7553C32.3999 11.5106 32.4774 11.2659 32.5573 11.0137C32.6792 10.6251 32.801 10.2364 32.9198 9.84681C33.0351 9.46999 33.155 9.09457 33.275 8.7192C33.3448 8.49424 33.4146 8.26927 33.4865 8.03749C33.7403 7.52033 33.7403 7.52033 34.1759 7.34377C34.3004 7.33496 34.425 7.32615 34.5533 7.31708C35.1381 8.73068 35.6528 10.1571 36.1285 11.6108C36.1927 11.8052 36.2569 11.9996 36.323 12.1999C36.479 12.6724 36.6343 13.145 36.7891 13.6179C37.3001 12.8514 37.5418 12.0738 37.8308 11.2043C37.8871 11.041 37.9434 10.8778 38.0015 10.7096C38.273 9.89771 38.496 9.2018 38.4151 8.33334C38.0127 8.19919 37.6102 8.06505 37.1956 7.92683C37.1956 7.72561 37.1956 7.52439 37.1956 7.31708C38.7383 7.31708 40.281 7.31708 41.8704 7.31708C41.8704 7.5183 41.8704 7.71952 41.8704 7.92683C41.6189 7.98971 41.3673 8.0526 41.1082 8.11738C40.5811 8.31525 40.3114 8.43173 40.0053 8.91044C39.916 9.13192 39.916 9.13192 39.825 9.35788C39.7583 9.52185 39.6916 9.68581 39.6229 9.85474C39.3221 10.6574 39.0403 11.4638 38.774 12.2785C38.6877 12.5385 38.6877 12.5385 38.5997 12.8038C38.4188 13.3501 38.2391 13.8969 38.0594 14.4436C37.9359 14.8172 37.8123 15.1907 37.6886 15.5643C37.3878 16.4734 37.0881 17.3829 36.7891 18.2927C36.4012 18.2298 36.4012 18.2298 35.9761 18.0894C35.7421 17.6017 35.5696 17.1586 35.4076 16.6468C35.3645 16.5192 35.3213 16.3915 35.2769 16.26C35.1167 15.7828 34.9624 15.3036 34.8074 14.8247C34.4552 13.7557 34.1031 12.6867 33.7403 11.5854C32.6336 14.9055 32.6336 14.9055 31.5045 18.2927C31.2362 18.2256 30.9679 18.1585 30.6915 18.0894C30.4885 17.74 30.4885 17.74 30.3445 17.2802C30.2889 17.1085 30.2333 16.9368 30.176 16.7599C30.1192 16.573 30.0625 16.3861 30.004 16.1935C29.9429 16.0022 29.8819 15.8109 29.819 15.6138C29.6239 15.0003 29.4335 14.3854 29.2434 13.7703C29.0507 13.1585 28.8571 12.547 28.6634 11.9356C28.5431 11.5547 28.4236 11.1735 28.305 10.792C27.9304 9.54067 27.9304 9.54067 27.4395 8.33334C27.0482 8.12569 27.0482 8.12569 26.6011 8.06657C26.3412 8.02046 26.0813 7.97434 25.8135 7.92683C25.8135 7.72561 25.8135 7.52439 25.8135 7.31708Z" fill="#A9A9A9"/>
<path d="M68.9023 7.31705C69.7988 7.2968 70.6952 7.28213 71.5919 7.27239C71.8962 7.26833 72.2006 7.2628 72.5049 7.25572C74.4667 7.21125 75.9841 7.18925 77.5279 8.57467C77.9674 9.36587 78.0885 10.0736 78.0487 10.9756C77.721 11.9405 77.2652 12.4464 76.4227 13.0081C75.5985 13.4137 74.9353 13.4585 74.0218 13.44C73.7857 13.4363 73.5496 13.4327 73.3064 13.4289C73.1275 13.4242 72.9485 13.4195 72.7641 13.4146C72.7874 13.8382 72.8133 14.2616 72.8404 14.6849C72.8545 14.9207 72.8686 15.1565 72.8832 15.3995C72.9607 16.0043 73.0277 16.374 73.3739 16.8699C73.9922 17.1326 73.9922 17.1326 74.5934 17.2764C74.5934 17.4776 74.5934 17.6788 74.5934 17.8862C72.7154 17.8862 70.8373 17.8862 68.9023 17.8862C68.9023 17.6849 68.9023 17.4837 68.9023 17.2764C69.3719 17.1423 69.8414 17.0081 70.3251 16.8699C70.7046 15.4242 70.7936 14.0929 70.7824 12.6016C70.784 12.3925 70.7856 12.1834 70.7872 11.968C70.7839 10.6939 70.6487 9.56607 70.3251 8.33331C69.8556 8.19916 69.3861 8.06502 68.9023 7.92681C68.9023 7.72559 68.9023 7.52437 68.9023 7.31705ZM72.7641 8.33331C72.7641 9.67477 72.7641 11.0162 72.7641 12.3984C74.2965 12.4654 74.2965 12.4654 75.4064 11.7886C75.9065 11.2885 75.8896 11.0961 75.9145 10.4039C75.8943 9.57944 75.8474 9.39379 75.3175 8.71441C74.46 8.19131 74.46 8.19131 72.7641 8.33331Z" fill="#A9A9A9"/>
<path d="M48.5396 10.5056C49.5369 11.4495 50.0366 12.4436 50.1021 13.8211C50.0366 15.1986 49.5369 16.1927 48.5396 17.1367C47.4366 18.0016 46.1237 18.4186 44.7222 18.349C43.0939 18.1267 41.9653 17.4652 40.8541 16.2601C40.0402 15.1664 40.1128 13.9115 40.2443 12.6016C40.7709 11.0772 41.9013 10.2487 43.2931 9.55283C45.107 8.99472 47.051 9.33829 48.5396 10.5056ZM42.8358 11.4837C42.0772 12.5675 42.184 13.7656 42.2768 15.0406C42.6485 16.136 43.2773 16.7604 44.3094 17.2764C45.3723 17.3582 46.0587 17.2619 46.9516 16.6667C47.9207 15.4094 48.1312 14.3571 47.9679 12.8049C47.6952 11.8901 47.3012 11.3119 46.596 10.6707C45.1182 9.98866 43.9231 10.2756 42.8358 11.4837Z" fill="#A9A9A9"/>
<path d="M12.6016 13.2114C12.9374 13.715 13.1296 14.0894 13.3342 14.6456C13.3952 14.8105 13.4562 14.9753 13.519 15.1451C13.6159 15.4109 13.6159 15.4109 13.7148 15.6821C13.7819 15.8648 13.849 16.0475 13.9181 16.2357C14.0596 16.6216 14.2007 17.0077 14.3414 17.394C14.5573 17.986 14.7751 18.5772 14.993 19.1684C15.1302 19.5434 15.2673 19.9184 15.4043 20.2934C15.4697 20.4706 15.5351 20.6479 15.6025 20.8305C15.6622 20.9953 15.722 21.1601 15.7835 21.3299C15.8364 21.4748 15.8894 21.6196 15.9439 21.7689C16.0569 22.1545 16.0569 22.1545 16.0569 22.7642C14.8352 23.1181 13.7436 23.2336 12.4746 23.2215C12.2247 23.2239 12.2247 23.2239 11.9697 23.2263C11.0159 23.2232 10.2461 23.1298 9.34961 22.7642C9.80969 20.9183 10.416 19.1282 11.0363 17.3316C11.2063 16.8387 11.3748 16.3454 11.5433 15.8521C11.6509 15.5387 11.7586 15.2253 11.8664 14.912C11.9168 14.7645 11.9672 14.6169 12.0191 14.4649C12.375 13.438 12.375 13.438 12.6016 13.2114Z" fill="#A9A9A9"/>
<path d="M2.64214 7.92682C3.15199 8.43667 3.27734 8.88093 3.5207 9.56068C3.56602 9.6863 3.61135 9.81193 3.65806 9.94137C3.80776 10.3572 3.9558 10.7736 4.1038 11.19C4.20746 11.4791 4.3112 11.7682 4.41503 12.0573C4.63253 12.6636 4.84928 13.2702 5.06543 13.877C5.34231 14.6542 5.62053 15.431 5.89925 16.2076C6.11355 16.8048 6.32739 17.4023 6.54108 17.9997C6.64352 18.2861 6.74603 18.5725 6.84862 18.8589C6.99205 19.2596 7.13495 19.6605 7.27768 20.0615C7.35905 20.2896 7.44042 20.5176 7.52426 20.7526C7.68199 21.2189 7.81833 21.6749 7.92669 22.1545C5.63442 21.4844 4.04803 19.6849 2.84539 17.6829C1.46611 14.7687 1.23013 11.8025 2.23563 8.73983C2.36451 8.46561 2.49767 8.19315 2.64214 7.92682Z" fill="#A9A9A9"/>
<path d="M106.822 9.43847C107.676 9.55228 108.293 9.56299 109.147 9.34955C109.147 10.3556 109.147 11.3617 109.147 12.3983C108.878 12.3983 108.61 12.3983 108.334 12.3983C108.245 12.172 108.157 11.9456 108.067 11.7124C107.785 10.94 107.785 10.94 107.114 10.5691C106.696 10.5202 106.696 10.5202 106.263 10.5437C106.007 10.552 105.751 10.5604 105.488 10.5691C105.403 11.0428 105.403 11.0428 105.488 11.5853C106.344 12.3807 107.312 12.8034 108.366 13.2804C109.017 13.6609 109.354 13.9985 109.756 14.6341C109.957 15.5791 109.892 16.4113 109.439 17.2637C108.629 17.9491 107.875 18.2539 106.822 18.3689C105.944 18.2765 105.284 18.0248 104.472 17.6829C104.405 17.8841 104.338 18.0853 104.268 18.2926C104.067 18.2926 103.866 18.2926 103.659 18.2926C103.659 17.0853 103.659 15.878 103.659 14.6341C103.927 14.6341 104.195 14.6341 104.472 14.6341C104.506 14.7444 104.541 14.8547 104.577 14.9684C104.794 15.6092 104.977 16.14 105.424 16.6539C106.144 16.9846 106.724 17.0478 107.52 17.0731C107.963 16.8689 107.963 16.8689 108.13 16.4634C108.072 15.9607 108.013 15.7235 107.623 15.3915C107.493 15.3176 107.362 15.2438 107.228 15.1676C107.011 15.0391 107.011 15.0391 106.788 14.908C106.448 14.7166 106.106 14.5279 105.763 14.3411C104.973 13.8977 104.377 13.5573 103.824 12.8302C103.612 12.0148 103.563 11.3667 103.862 10.5691C104.673 9.55873 105.579 9.26817 106.822 9.43847Z" fill="#A9A9A9"/>
<path d="M100.813 9.75605C100.88 9.62191 100.947 9.48776 101.016 9.34955C101.217 9.34955 101.419 9.34955 101.626 9.34955C101.626 10.3556 101.626 11.3617 101.626 12.3983C101.425 12.3983 101.224 12.3983 101.016 12.3983C100.784 12.0498 100.784 12.0498 100.559 11.598C100.148 10.8938 100.086 10.799 99.2632 10.5437C98.5503 10.5101 98.5503 10.5101 97.9675 10.9756C98.1586 11.772 98.3444 11.9732 99.052 12.4182C99.3241 12.5545 99.5978 12.6875 99.8729 12.8175C101.648 13.6761 101.648 13.6761 102.236 14.4308C102.508 15.263 102.535 16.0191 102.21 16.8318C101.478 17.6864 100.951 18.1206 99.8221 18.2799C98.8331 18.348 98.2215 18.1523 97.3577 17.6829C97.2236 17.8841 97.0894 18.0853 96.9512 18.2926C96.75 18.2926 96.5488 18.2926 96.3414 18.2926C96.3414 17.0853 96.3414 15.878 96.3414 14.6341C96.5427 14.6341 96.7439 14.6341 96.9512 14.6341C96.9957 14.7591 97.0403 14.8841 97.0862 15.0128C97.4081 15.8332 97.6208 16.355 98.3358 16.8953C99.1058 17.1066 99.6337 17.0517 100.406 16.8699C100.66 16.6566 100.66 16.6566 100.68 16.1847C100.667 15.623 100.667 15.623 100.215 15.3129C100.039 15.2189 99.8635 15.1248 99.6824 15.0279C99.4972 14.9252 99.3119 14.8225 99.1211 14.7167C98.7987 14.5473 98.4764 14.3779 98.154 14.2085C97.3515 13.7749 96.7891 13.4074 96.3414 12.6016C96.2185 11.9648 96.2076 11.4079 96.3414 10.7723C97.5417 9.16057 99.034 9.16306 100.813 9.75605Z" fill="#A9A9A9"/>
<path d="M21.7477 7.31708C22.8006 8.21013 23.0783 9.70475 23.2193 11.028C23.4215 14.1396 22.8798 16.7967 20.9346 19.3089C20.0788 20.2779 19.239 21.1367 18.0891 21.748C17.955 21.748 17.8208 21.748 17.6826 21.748C18.0914 20.3491 18.537 18.967 19.0117 17.5892C19.078 17.3955 19.1443 17.2019 19.2127 17.0023C19.4221 16.3906 19.6321 15.7791 19.8422 15.1677C20.0537 14.5519 20.265 13.936 20.476 13.32C20.6067 12.9385 20.7376 12.5571 20.8689 12.1759C20.928 12.0034 20.987 11.831 21.0479 11.6534C21.1257 11.4269 21.1257 11.4269 21.2051 11.196C21.4864 10.3204 21.5944 9.50709 21.6587 8.5874C21.6758 8.3495 21.6928 8.1116 21.7103 7.86649C21.7288 7.59453 21.7288 7.59453 21.7477 7.31708Z" fill="#A9A9A9"/>
</g>
<defs>
<clipPath id="clip0_1002_8416">
<rect width="109.756" height="25" fill="white"/>
</clipPath>
</defs>
</svg>
